<svg width="668" height="625" viewBox="0 0 668 625" fill="none" xmlns="http://www.w3.org/2000/svg">
<g clip-path="url(#clip0_0_687)">
<mask id="mask0_0_687" style="mask-type:luminance" maskUnits="userSpaceOnUse" x="0" y="0" width="668" height="625">
<path d="M668 0.714355H0V624.714H668V0.714355Z" fill="white"/>
</mask>
<g mask="url(#mask0_0_687)">
<path d="M455.358 360.358C356.082 360.358 275.602 279.848 275.602 180.536C275.602 81.2231 356.082 0.714355 455.358 0.714355C554.632 0.714355 635.114 81.2231 635.114 180.536C635.114 279.848 554.632 360.358 455.358 360.358ZM395.255 47.9L388.267 77.6347L363.621 125.691L373.609 127.031L396.077 95.9733C398.227 93.0015 399.925 89.7262 401.111 86.2549L412.67 52.479L403.653 31.9921L400.657 37.6693H400.655L395.255 47.9Z" fill="#D3E4FE"/>
<path d="M502.536 617.62C472.084 617.62 447.398 613.572 447.398 608.579C447.398 603.584 472.084 599.536 502.536 599.536C512.612 599.536 522.06 599.98 530.188 600.754C535.169 601.783 541.109 602.682 547.792 603.413C554.022 604.877 557.673 606.658 557.673 608.579C557.673 613.572 532.988 617.62 502.536 617.62Z" fill="#B8D0EE"/>
<path d="M539.97 230.115L539.36 207.858L544.388 207.812L547.217 230.115H539.97Z" fill="#FFB27D"/>
<path d="M582.206 312.539L588.792 360.399C589.348 364.461 590.878 368.323 593.248 371.662L619.427 408.555L615.557 428.876H609.513C608.35 428.876 607.859 427.396 608.787 426.697L610.694 425.266C611.327 424.793 611.722 424.07 611.78 423.283L612.655 411.457L583.304 385.48C579.639 382.238 576.845 378.127 575.175 373.528L564.637 322.95L582.206 312.539Z" fill="#343A9A"/>
<path d="M562.381 261.433C562.474 261.81 562.569 271.224 562.569 271.224L570.004 273.483L569.815 261.339L562.381 261.433Z" fill="#FFB27D"/>
<path d="M534.097 239.134L525.194 242.294L517.618 210.418L521.725 208.567L534.097 239.134Z" fill="#FFB27D"/>
<path d="M547.299 225.644L551.097 245.847L561.873 274.037L549.296 277.906L540.74 246.366L539.532 225.815L547.299 225.644Z" fill="#405AB1"/>
<path d="M569.58 316.26L568.817 375.918L570.867 430.566H551.461C550.444 430.566 549.576 429.831 549.41 428.829C549.22 427.686 549.997 426.609 551.14 426.429L563.071 424.56L552.09 381.44C551.347 378.521 550.906 375.531 550.777 372.519L548.349 316.002L569.58 316.26Z" fill="#3E5BB2"/>
<path d="M616.161 403.956L612.655 411.457L609.272 408.466L613.622 400.376L616.161 403.956Z" fill="#FFB27D"/>
<path d="M570.077 272.984L570.574 267.695L561.866 265.393L560.248 268.319L570.077 272.984Z" fill="#405AB1"/>
<path d="M526.091 230.594L530.758 229.35C533.506 237.314 537.952 243.493 543.993 249.364L556.775 262.688L569.354 271.186C571.286 272.49 572.683 274.449 573.29 276.701L583.92 316.138C573.502 322.322 560.94 323.757 549.399 320.086L547.729 319.552L546.534 272.252L532.945 258.962C527.421 252.054 523.835 240.378 522.213 231.681L526.091 230.594Z" fill="#71B4E6"/>
<path d="M536.546 208.29C536.546 211.243 538.939 213.637 541.893 213.637C544.846 213.637 547.238 211.243 547.238 208.29C547.238 205.336 544.846 202.942 541.893 202.942C538.939 202.942 536.546 205.336 536.546 208.29Z" fill="#FFB27D"/>
<path d="M557.051 252.934C557.051 259.824 562.636 265.412 569.525 265.412C576.414 265.412 581.996 259.824 581.996 252.934C581.996 246.043 576.414 240.457 569.525 240.457C562.636 240.457 557.051 246.043 557.051 252.934Z" fill="#FFB27D"/>
<path d="M562.11 420.785L570.467 419.902L570.626 424.159L563.071 424.561L562.11 420.785Z" fill="#FFB27D"/>
<path d="M564.329 202.379H497.63V135.651H564.329V202.379Z" fill="#FBFBFB"/>
<path d="M518.954 230.233L531.042 226.203L533.055 230.737L521.22 234.516L518.954 230.233Z" fill="#405AB1"/>
<path d="M537.587 224.44H548.921L548.67 227.463L537.086 227.713L537.587 224.44Z" fill="#405AB1"/>
<path d="M497.63 202.379H564.329V135.651H497.63V202.379ZM567.327 205.38H494.628V132.651H567.327V205.38Z" fill="#3157AF"/>
<path d="M573.905 126.134L532.73 167.96L520.514 157.183L511.128 167.838L533.396 187.483L584.009 136.117L573.905 126.134Z" fill="#97B4E3"/>
<path d="M513.883 207.283C513.883 210.235 516.276 212.63 519.227 212.63C522.181 212.63 524.574 210.235 524.574 207.283C524.574 204.329 522.181 201.935 519.227 201.935C516.276 201.935 513.883 204.329 513.883 207.283Z" fill="#FFB27D"/>
<path d="M581.862 259.95C582.993 258.873 584.148 257.769 584.857 256.377C585.746 254.624 585.851 252.568 585.636 250.612C585.435 248.773 584.944 246.909 583.812 245.449C581.608 242.607 577.483 241.851 575.203 239.072C574.305 237.975 573.746 236.618 572.761 235.598C570.96 233.733 567.782 233.41 565.642 234.876C563.504 236.342 562.656 239.424 563.742 241.778C565.383 241.525 567.004 241.81 568.63 242.144C570.319 242.491 572.075 242.893 573.408 243.99C575.121 245.405 575.813 247.724 575.996 249.937C576.059 250.708 576.051 251.553 575.577 252.165C575.012 252.893 573.998 253.045 573.147 253.401C572.249 253.776 571.471 254.434 570.949 255.256C570.742 255.59 570.567 255.997 570.689 256.371C570.876 256.94 571.642 257.102 572.215 256.922C572.786 256.742 573.264 256.339 573.823 256.119C575.41 255.492 577.367 256.702 577.713 258.373C578.059 260.047 576.938 261.829 575.348 262.45C573.757 263.069 571.866 262.62 570.554 261.526C570.182 262.681 569.691 264.164 569.623 265.373C571.344 265.409 573.068 265.313 574.773 265.089C576.258 264.895 577.797 264.569 578.956 263.621C579.568 263.122 580.038 262.475 580.501 261.835C580.972 261.183 581.279 260.506 581.862 259.95Z" fill="#405AB1"/>
<path d="M32.0172 168.598L32.0166 168.596C75.014 118.095 138.559 122.634 173.948 178.733C130.951 229.236 67.4067 224.698 32.0172 168.598Z" fill="#405AB1"/>
<path d="M167.505 179.39L39.2936 170.041L39.3607 169.123L167.57 178.47L167.505 179.39Z" fill="white"/>
<path d="M65.7817 195.927L65.1666 195.239L89.715 173.213L90.3307 173.899L65.7817 195.927Z" fill="white"/>
<path d="M109.268 175.158L77.3091 144.896L77.9416 144.225L109.902 174.488L109.268 175.158Z" fill="white"/>
<path d="M160.171 178.814L127.658 149.549L128.274 148.864L160.787 178.129L160.171 178.814Z" fill="white"/>
<path d="M107.171 204.711L106.551 204.027L136.349 176.981L136.968 177.663L107.171 204.711Z" fill="white"/>
<path d="M474.172 214.81H474.173C476.616 266.798 437.793 298.288 387.452 285.141C385.006 233.154 423.829 201.664 474.172 214.81Z" fill="#405AB1"/>
<path d="M390.791 281.308L469.23 217.886L469.685 218.448L391.245 281.87L390.791 281.308Z" fill="white"/>
<path d="M440.185 217.27L440.903 217.334L438.653 243.118L437.932 243.055L440.185 217.27Z" fill="white"/>
<path d="M426.411 252.491L460.938 252.681L460.935 253.404L426.407 253.216L426.411 252.491Z" fill="white"/>
<path d="M395.3 277.706L429.608 277.023L429.622 277.746L395.314 278.428L395.3 277.706Z" fill="white"/>
<path d="M411.772 234.443L412.493 234.501L409.925 265.975L409.203 265.916L411.772 234.443Z" fill="white"/>
<path d="M108.289 83.0776C156.672 96.5852 173.765 141.733 146.466 183.916C98.0847 170.407 80.9904 125.26 108.289 83.0776Z" fill="#71B4E6"/>
<path d="M143.966 179.691L109.612 88.5414L110.265 88.2957L144.619 179.445L143.966 179.691Z" fill="white"/>
<path d="M100.247 114.993L100.523 114.35L123.469 124.228L123.193 124.87L100.247 114.993Z" fill="white"/>
<path d="M128.351 138.294L138.984 106.689L139.645 106.912L129.012 138.517L128.351 138.294Z" fill="white"/>
<path d="M142.03 174.466L151.8 142.796L152.467 143.001L142.696 174.671L142.03 174.466Z" fill="white"/>
<path d="M107.375 146.251L107.647 145.609L135.712 157.5L135.439 158.142L107.375 146.251Z" fill="white"/>
<path d="M463.795 42.21L480.103 76.0372L500.968 101.949L494.973 105.788L473.386 82.9956L452.178 54.7604L463.795 42.21Z" fill="#343A9A"/>
<path d="M461.367 40.3748L470.974 42.8489L468.668 49.003L457.916 46.6654L461.367 40.3748Z" fill="#FFB27D"/>
<path d="M403.653 31.9922L395.255 47.9001L388.267 77.6348L363.621 125.691L373.609 127.031L396.077 95.9734C398.227 93.0015 399.925 89.7262 401.111 86.255L412.67 52.4791L403.653 31.9922Z" fill="#3E5BB2"/>
<path d="M395.255 47.9H400.658V37.6689H395.255V47.9Z" fill="#8092D0"/>
<path d="M402.012 78.0873L394.671 50.3885L395.255 47.8998L400.657 37.6692L401.851 37.3337C401.851 37.3337 405.205 46.2139 406.014 48.1085C406.39 48.9851 408.319 53.4406 410.329 58.103L402.012 78.0873Z" fill="#3A4CA8"/>
<path d="M469.183 78.1454L494.953 115.412L489.847 116.234L458.576 89.3746L451.51 52.1484C451.51 52.1484 450.56 40.6831 455.762 41.0476C460.966 41.4121 463.86 47.5404 463.86 47.5404L469.183 78.1454Z" fill="#FBFBFB"/>
<path d="M465.445 40.6157C441.22 31.0241 414.438 29.6338 414.438 29.6338L403.812 55.4863L461.715 60.0572L465.445 40.6157Z" fill="#FBFBFB"/>
<path d="M414.438 29.6335L410.878 29.8053C401.273 30.2693 393.967 38.6149 394.779 48.2017L412.225 79.0283C413.721 81.6694 414.435 84.683 414.285 87.7159L412.409 127.394L422.263 126.723L428.618 88.3373C429.282 84.479 429.065 80.5214 427.984 76.7613L414.438 29.6335Z" fill="#3E5BB2"/>
<path d="M492.832 104.947C493.108 108.281 495.912 110.77 499.094 110.507C502.275 110.242 504.63 107.324 504.354 103.99C504.078 100.657 501.275 98.1664 498.093 98.4297C494.912 98.6946 492.555 101.612 492.832 104.947Z" fill="#FFB27D"/>
<path d="M468.575 52.2061C472.088 57.6681 479.159 59.3781 484.372 56.0241C489.583 52.67 490.962 45.5221 487.449 40.06C483.937 34.598 476.862 32.888 471.651 36.2437C466.439 39.5976 465.061 46.7455 468.575 52.2061Z" fill="#FFB27D"/>
<path d="M486.19 117.012C486.466 120.347 489.269 122.837 492.45 122.572C495.633 122.309 497.989 119.392 497.713 116.057C497.434 112.722 494.633 110.232 491.45 110.495C488.267 110.76 485.914 113.678 486.19 117.012Z" fill="#FFB27D"/>
<path d="M412.885 125.935L412.389 130.473L433.19 130.184C433.19 130.184 433.965 127.351 433.19 127.092C432.435 126.84 417.587 125.544 417.587 125.544L412.885 125.935Z" fill="#343A9A"/>
<path d="M364.266 125.935L363.772 130.473L384.573 130.184C384.573 130.184 385.346 127.351 384.573 127.092C383.818 126.84 368.969 125.544 368.969 125.544L364.266 125.935Z" fill="#343A9A"/>
<path d="M489.81 55.4557C491.137 55.3497 492.281 54.3815 492.908 53.2063C493.532 52.0311 493.713 50.6728 493.776 49.3418C493.806 48.6578 493.806 47.9561 493.599 47.301C493.22 46.1002 492.203 45.2154 491.601 44.1076C491.267 43.4911 491.067 42.8136 490.858 42.1441C490.112 39.7405 489.229 37.3498 487.828 35.2578C487.404 34.6221 486.925 34.0103 486.319 33.5431C485.465 32.8833 484.413 32.5476 483.382 32.2265C482.291 31.8846 481.138 31.5393 480.025 31.7898C479.389 31.9343 478.811 32.2634 478.247 32.5894C476.106 33.8208 473.964 35.0523 471.825 36.2821C472.788 36.9179 474.051 36.7896 475.187 36.5809C476.324 36.372 477.532 36.1168 478.599 36.5568C479.558 36.9518 480.254 37.9181 480.324 38.9538C480.394 39.9877 479.831 41.0393 478.935 41.5581C480.402 41.4697 481.889 41.4247 483.318 41.7683C484.747 42.1104 486.124 42.8859 486.906 44.1269C487.577 45.1866 487.759 46.4775 487.864 47.7265C487.945 48.677 487.992 49.6516 487.812 50.594C487.649 51.4385 487.202 52.206 487.051 53.049C486.787 54.5148 488.485 55.5633 489.81 55.4557Z" fill="#405AB1"/>
<path d="M590.204 605.512C574.518 605.512 559.933 604.739 547.792 603.413C543.188 602.328 537.174 601.42 530.188 600.754C519.831 598.612 513.645 595.904 513.645 592.959C513.645 586.025 547.922 580.404 590.204 580.404C632.485 580.404 666.76 586.025 666.76 592.959C666.76 599.892 632.485 605.512 590.204 605.512Z" fill="#B8D0EE"/>
<path d="M547.792 603.413C541.109 602.682 535.167 601.783 530.188 600.754C537.174 601.42 543.188 602.33 547.792 603.413Z" fill="#89B4E4"/>
<path d="M436.942 564.229H111.306V130.382H436.942V564.229Z" fill="#343A9A"/>
<path d="M126.109 549.421V145.188H422.142V549.421H126.109Z" fill="#FBFBFB"/>
<path d="M190.284 142.724C190.438 152.728 198.594 161.27 209.145 161.27H339.106C349.658 161.27 357.813 152.728 357.966 142.724H190.284Z" fill="#42367D"/>
<path d="M276.348 119.536C268.361 121.055 261.487 114.179 263.001 106.186C263.849 101.723 267.449 98.1248 271.911 97.2802C279.895 95.7693 286.763 102.64 285.251 110.627C284.406 115.089 280.81 118.689 276.348 119.536ZM353.942 118.658C352.553 112.66 347.212 108.41 341.057 108.41H297.708C297.708 95.3792 287.152 84.8179 274.126 84.8179C261.101 84.8179 250.543 95.3792 250.543 108.41H207.193C201.039 108.41 195.697 112.658 194.31 118.657L190.766 133.994C188.031 145.821 197.01 157.117 209.145 157.117H339.106C351.24 157.117 360.22 145.821 357.487 133.994L353.942 118.658Z" fill="#97B4E3"/>
<path d="M148.771 243.858H191.955V200.652H148.771V243.858ZM193.9 245.801H146.826V198.708H193.9V245.801Z" fill="#3157AF"/>
<path d="M198.16 194.49L171.498 221.572L163.588 214.595L157.511 221.494L171.929 234.212L204.701 200.954L198.16 194.49Z" fill="#97B4E3"/>
<path d="M401.425 208.241H217.846V205.28H401.425V208.241Z" fill="#42367D"/>
<path d="M401.425 220.101H217.846V217.142H401.425V220.101Z" fill="#42367D"/>
<path d="M316.791 231.964H217.846V229.002H316.791V231.964Z" fill="#42367D"/>
<path d="M148.771 322.335H191.955V279.13H148.771V322.335ZM193.9 324.279H146.826V277.188H193.9V324.279Z" fill="#3157AF"/>
<path d="M198.16 272.968L171.498 300.05L163.588 293.071L157.511 299.97L171.929 312.691L204.701 279.432L198.16 272.968Z" fill="#97B4E3"/>
<path d="M401.425 286.72H217.846V283.757H401.425V286.72Z" fill="#42367D"/>
<path d="M401.425 298.579H217.846V295.619H401.425V298.579Z" fill="#42367D"/>
<path d="M316.791 310.441H217.846V307.48H316.791V310.441Z" fill="#42367D"/>
<path d="M148.771 400.813H191.955V357.607H148.771V400.813ZM193.9 402.755H146.826V355.664H193.9V402.755Z" fill="#3157AF"/>
<path d="M401.425 365.197H217.846V362.235H401.425V365.197Z" fill="#42367D"/>
<path d="M401.425 377.055H217.846V374.097H401.425V377.055Z" fill="#42367D"/>
<path d="M316.791 388.919H217.846V385.957H316.791V388.919Z" fill="#42367D"/>
<path d="M148.771 479.29H191.955V436.085H148.771V479.29ZM193.9 481.234H146.826V434.141H193.9V481.234Z" fill="#3157AF"/>
<path d="M401.425 443.675H217.846V440.712H401.425V443.675Z" fill="#42367D"/>
<path d="M401.425 455.534H217.846V452.574H401.425V455.534Z" fill="#42367D"/>
<path d="M316.791 467.396H217.846V464.435H316.791V467.396Z" fill="#42367D"/>
<path d="M636.444 588.634L610.252 430.974L612.196 430.649L638.391 588.312L636.444 588.634Z" fill="#343A9A"/>
<path d="M588.348 588.634L562.152 430.974L564.099 430.649L590.295 588.312L588.348 588.634Z" fill="#343A9A"/>
<path d="M617.232 465.304H568.709V463.333H617.232V465.304Z" fill="#343A9A"/>
<path d="M620.67 486.359H572.144V484.383H620.67V486.359Z" fill="#343A9A"/>
<path d="M624.107 507.405H575.58V505.433H624.107V507.405Z" fill="#343A9A"/>
<path d="M627.54 528.454H579.016V526.482H627.54V528.454Z" fill="#343A9A"/>
<path d="M630.976 549.508H582.452V547.534H630.976V549.508Z" fill="#343A9A"/>
<path d="M634.412 570.556H585.885V568.582H634.412V570.556Z" fill="#343A9A"/>
<path d="M529.578 588.634L527.632 588.312L553.828 430.649L555.773 430.974L529.578 588.634Z" fill="#405AB1"/>
<path d="M577.675 588.634L575.731 588.312L601.924 430.649L603.87 430.974L577.675 588.634Z" fill="#405AB1"/>
<path d="M597.314 465.304H548.789V463.333H597.314V465.304Z" fill="#405AB1"/>
<path d="M593.881 486.359H545.353V484.383H593.881V486.359Z" fill="#405AB1"/>
<path d="M590.445 507.405H541.919V505.433H590.445V507.405Z" fill="#405AB1"/>
<path d="M587.007 528.454H538.483V526.482H587.007V528.454Z" fill="#405AB1"/>
<path d="M583.574 549.508H535.045V547.534H583.574V549.508Z" fill="#405AB1"/>
<path d="M580.137 570.556H531.612V568.582H580.137V570.556Z" fill="#405AB1"/>
<path d="M618.685 434.28H550.877V428.359H618.685V434.28Z" fill="#405AB1"/>
<path d="M530.721 564.109H66.778V560.897H530.721V564.109Z" fill="#343A9A"/>
<path d="M478.717 611.722L478.8 616.54L473.934 616.796L472.912 611.417L478.717 611.722Z" fill="#F25249"/>
<path d="M476.203 616.647C476.357 616.16 476.209 615.596 475.84 615.246C475.468 614.897 474.895 614.784 474.42 614.967C473.912 615.164 473.575 615.634 473.215 616.039C472.27 617.103 471.012 617.829 469.743 618.471C468.454 619.121 467.028 619.803 466.426 621.115C466.063 621.907 466.908 622.798 467.737 623.064C470.797 624.049 473.955 621.707 476.825 620.267C477.275 620.041 477.733 619.809 478.096 619.457C479.133 618.444 479.075 616.784 478.916 615.342C478.896 615.168 478.601 615.126 478.433 615.165C478.262 615.206 478.125 615.325 477.991 615.44C477.452 615.904 476.743 616.181 476.203 616.647Z" fill="#343A9A"/>
<path d="M488.576 611.557L488.493 616.378L493.358 616.633L494.381 611.253L488.576 611.557Z" fill="#F25249"/>
<path d="M491.087 616.483C490.933 616 491.081 615.432 491.451 615.083C491.822 614.735 492.397 614.62 492.873 614.804C493.377 615.002 493.714 615.472 494.077 615.878C495.022 616.941 496.281 617.667 497.549 618.306C498.837 618.958 500.263 619.64 500.864 620.953C501.227 621.745 500.384 622.636 499.554 622.902C496.495 623.886 493.338 621.547 490.464 620.104C490.015 619.878 489.559 619.646 489.197 619.294C488.16 618.282 488.216 616.621 488.375 615.179C488.395 615.005 488.689 614.961 488.86 615.005C489.028 615.045 489.168 615.162 489.299 615.276C489.839 615.742 490.548 616.019 491.087 616.483Z" fill="#343A9A"/>
<path d="M462.553 509.106L456.625 448.09L450.272 429.875C447.886 423.037 446.897 415.792 447.357 408.565L449 382.837L454.931 381.99L459.747 410.565L468.486 443.853L489.662 445.548L500.561 420.209C501.52 417.981 502.333 415.693 502.998 413.361L511.688 382.837L517.618 383.686L515.551 415.607C515.356 418.63 514.618 421.594 513.372 424.354L501.523 450.634L502.37 507.41L462.553 509.106Z" fill="#D3DEEA"/>
<path d="M502.273 550.458L496.493 611.722H488.485L487.91 553.908L484.524 509.895L478.744 510.141L477.126 551.912L478.717 611.722H470.219L462.34 551.035L461.429 497.516L502.229 498.048L502.273 550.458Z" fill="#3E5BB2"/>
<path d="M457.241 378.916C457.241 382.108 454.656 384.694 451.464 384.694C448.274 384.694 445.686 382.108 445.686 378.916C445.686 375.723 448.274 373.137 451.464 373.137C454.656 373.137 457.241 375.723 457.241 378.916Z" fill="#F25249"/>
<path d="M521.645 379.725C521.645 382.994 518.995 385.645 515.725 385.645C512.458 385.645 509.808 382.994 509.808 379.725C509.808 376.454 512.458 373.802 515.725 373.802C518.995 373.802 521.645 376.454 521.645 379.725Z" fill="#F25249"/>
<path d="M491.431 427.006C491.431 433.439 486.22 438.653 479.789 438.653C473.359 438.653 468.148 433.439 468.148 427.006C468.148 420.575 473.359 415.36 479.789 415.36C486.22 415.36 491.431 420.575 491.431 427.006Z" fill="#F25249"/>
<path d="M491.524 418.48C489.231 416.451 486.818 414.516 484.102 413.105C481.384 411.692 478.329 410.814 475.271 411.001C473.954 411.082 472.581 411.392 471.597 412.275C470.987 412.82 470.569 413.548 470.258 414.303C469.514 416.106 469.406 418.364 470.676 419.846C472.363 418.479 474.455 417.531 476.613 417.319C477.742 417.208 478.918 417.275 479.952 417.737C481.302 418.341 482.284 419.548 483.06 420.81C484.227 422.717 485.035 424.844 485.429 427.044C485.516 427.524 485.584 428.02 485.821 428.444C486.055 428.871 486.502 429.221 486.989 429.181C487.341 429.154 487.657 428.931 488.008 428.91C488.601 428.878 489.086 429.454 489.168 430.042C489.254 430.631 489.043 431.215 488.837 431.773C488.406 432.945 487.974 434.117 487.542 435.29C490.009 433.442 491.797 430.705 492.499 427.701C493.198 424.699 493.833 420.524 491.524 418.48Z" fill="#3F56AF"/>
<path d="M517.785 373.34H451.091V306.612H517.785V373.34Z" fill="#FBFBFB"/>
<path d="M451.091 373.34H517.785V306.612H451.091V373.34ZM520.787 376.341H448.088V303.611H520.787V376.341Z" fill="#3157AF"/>
<path d="M527.366 297.094L486.19 338.919L473.973 328.143L464.588 338.799L486.856 358.443L537.469 307.077L527.366 297.094Z" fill="#97B4E3"/>
<path d="M462.553 509.106L456.625 448.09L450.272 429.875C447.886 423.037 446.897 415.792 447.357 408.565L449 382.837L454.931 381.99L459.747 410.565L468.486 443.853L489.662 445.548L500.561 420.209C501.52 417.981 502.333 415.693 502.998 413.361L511.688 382.837L517.618 383.686L515.551 415.607C515.356 418.63 514.618 421.594 513.372 424.354L501.523 450.634L502.37 507.41L462.553 509.106Z" fill="#D3DEEA"/>
<path d="M457.241 378.916C457.241 382.108 454.656 384.694 451.464 384.694C448.274 384.694 445.686 382.108 445.686 378.916C445.686 375.723 448.274 373.137 451.464 373.137C454.656 373.137 457.241 375.723 457.241 378.916Z" fill="#FFB27D"/>
<path d="M491.431 427.006C491.431 433.439 486.22 438.653 479.789 438.653C473.359 438.653 468.148 433.439 468.148 427.006C468.148 420.575 473.359 415.36 479.789 415.36C486.22 415.36 491.431 420.575 491.431 427.006Z" fill="#FFB27D"/>
<path d="M491.524 418.48C489.231 416.451 486.818 414.516 484.102 413.105C481.384 411.692 478.329 410.814 475.271 411.001C473.954 411.082 472.581 411.392 471.597 412.275C470.987 412.82 470.569 413.548 470.258 414.303C469.514 416.106 469.406 418.364 470.676 419.846C472.363 418.479 474.455 417.531 476.613 417.319C477.742 417.208 478.918 417.275 479.952 417.737C481.302 418.341 482.284 419.548 483.06 420.81C484.227 422.717 485.035 424.844 485.429 427.044C485.516 427.524 485.584 428.02 485.821 428.444C486.055 428.871 486.502 429.221 486.989 429.181C487.341 429.154 487.657 428.931 488.008 428.91C488.601 428.878 489.086 429.454 489.168 430.042C489.254 430.631 489.043 431.215 488.837 431.773C488.406 432.945 487.974 434.117 487.542 435.29C490.009 433.442 491.797 430.705 492.499 427.701C493.198 424.699 493.833 420.524 491.524 418.48Z" fill="#3F56AF"/>
<path d="M475.322 433.946V446.237C475.322 448.09 476.792 449.605 478.642 449.66C480.513 449.718 482.082 448.261 482.165 446.391L482.622 433.108L475.322 433.946Z" fill="#FFB27D"/>
<path d="M515.551 415.606L517.618 383.686L516.596 383.539C514.159 387.899 513.306 396.73 512.541 398.927C509.583 407.391 505.53 415.551 504.044 424.464C503.335 428.723 503.215 433.145 501.612 437.156C500.131 440.854 497.48 443.959 495.72 447.533C493.931 451.171 493.487 476.03 492.459 478.607C490.39 483.817 478.662 488.043 477.448 491.401C475.532 496.707 478.637 502.877 483.425 505.855C485.026 506.852 486.766 507.53 488.575 507.997L502.37 507.41L501.523 450.634L513.372 424.354C514.618 421.594 515.356 418.63 515.551 415.606Z" fill="#B1CCE1"/>
<path d="M478.717 611.722L478.8 616.54L473.934 616.796L472.912 611.417L478.717 611.722Z" fill="#F25249"/>
<path d="M476.203 616.647C476.357 616.16 476.209 615.596 475.84 615.246C475.468 614.897 474.895 614.784 474.42 614.967C473.912 615.164 473.575 615.634 473.215 616.039C472.27 617.103 471.012 617.829 469.743 618.471C468.454 619.121 467.028 619.803 466.426 621.115C466.063 621.907 466.908 622.798 467.737 623.064C470.797 624.049 473.955 621.707 476.825 620.267C477.275 620.041 477.733 619.809 478.096 619.457C479.133 618.444 479.075 616.784 478.916 615.342C478.896 615.168 478.601 615.126 478.433 615.165C478.262 615.206 478.125 615.325 477.991 615.44C477.452 615.904 476.743 616.181 476.203 616.647Z" fill="#343A9A"/>
<path d="M488.576 611.557L488.493 616.378L493.358 616.633L494.381 611.253L488.576 611.557Z" fill="#F25249"/>
<path d="M521.645 379.725C521.645 382.994 518.995 385.645 515.725 385.645C512.458 385.645 509.808 382.994 509.808 379.725C509.808 376.454 512.458 373.802 515.725 373.802C518.995 373.802 521.645 376.454 521.645 379.725Z" fill="#FFB27D"/>
<path d="M491.087 616.483C490.933 616 491.081 615.432 491.451 615.083C491.822 614.735 492.397 614.62 492.873 614.804C493.377 615.002 493.714 615.472 494.077 615.878C495.022 616.941 496.281 617.667 497.549 618.306C498.837 618.958 500.263 619.64 500.864 620.953C501.227 621.745 500.384 622.636 499.554 622.902C496.495 623.886 493.338 621.547 490.464 620.104C490.015 619.878 489.559 619.646 489.197 619.294C488.16 618.282 488.216 616.621 488.375 615.179C488.395 615.005 488.689 614.961 488.86 615.005C489.028 615.045 489.168 615.162 489.299 615.276C489.839 615.742 490.548 616.019 491.087 616.483Z" fill="#343A9A"/>
<path d="M502.273 550.458L496.493 611.722H488.485L487.91 553.908L484.524 509.895L478.744 510.141L477.126 551.912L478.717 611.722H470.219L462.34 551.035L461.429 497.516L502.229 498.048L502.273 550.458Z" fill="#3E5BB2"/>
<path d="M32.5781 390.203C30.6766 389.744 28.6572 390.508 27.1062 391.7C24.8485 393.435 23.2963 396.394 24.0373 399.145C24.5168 400.923 25.8667 402.349 27.3965 403.371C28.2139 403.917 29.1086 404.374 30.074 404.557C32.6295 405.045 35.1592 403.564 37.0495 401.777C38.5352 400.373 42.0636 397.206 39.9002 395.2C38.845 394.223 37.5561 393.416 36.4301 392.516C35.2645 391.585 34.064 390.563 32.5781 390.203Z" fill="#405AB1"/>
<path d="M26.662 489.07L29.06 455.929L25.3535 431.538L12.7702 359.655L18.8476 358.787L32.7401 422.191L54.4459 423.928L77.0201 359.655L83.0983 360.523L66.6016 429.14L60.8119 455.368L61.4933 487.332L26.662 489.07Z" fill="#D6DDEA"/>
<path d="M25.8325 390.666L18.6408 393.186L12.7702 359.655L18.8476 358.787L25.8325 390.666Z" fill="#FFB27D"/>
<path d="M67.6992 386.192L76.1273 389.52L83.0981 360.523L77.02 359.655L67.6992 386.192Z" fill="#FFB27D"/>
<path d="M39.5316 422.735L45.7633 433.802L48.9012 423.483L39.5316 422.735Z" fill="#FFB27D"/>
<path d="M85.818 356.179C85.818 359.057 83.4857 361.392 80.6082 361.392C77.7311 361.392 75.3989 359.057 75.3989 356.179C75.3989 353.3 77.7311 350.968 80.6082 350.968C83.4857 350.968 85.818 353.3 85.818 356.179Z" fill="#FFB27D"/>
<path d="M20.4185 357.154C20.4185 360.031 18.0863 362.364 15.2093 362.364C12.3323 362.364 10.0007 360.031 10.0007 357.154C10.0007 354.275 12.3323 351.942 15.2093 351.942C18.0863 351.942 20.4185 354.275 20.4185 357.154Z" fill="#FFB27D"/>
<path d="M55.6209 406.848C55.6209 413.114 50.5426 418.195 44.277 418.195C38.0121 418.195 32.9333 413.114 32.9333 406.848C32.9333 400.581 38.0121 395.5 44.277 395.5C50.5426 395.5 55.6209 400.581 55.6209 406.848Z" fill="#FFB27D"/>
<path d="M40.9193 423.106V415.259H47.0708V424.337L44.1487 426.49L40.9193 423.106Z" fill="#FFB27D"/>
<path d="M45.2059 394.04L45.5183 394.024C46.8309 393.917 48.026 393.342 49.2517 392.911C51.0566 392.28 54.1943 391.662 54.5405 394.446C54.78 396.365 52.7005 397.25 51.3694 398.091C49.9832 397.517 48.4648 397.528 46.9639 397.525C44.962 397.52 42.907 397.659 41.0806 398.483C39.2557 399.307 37.6851 400.935 37.4213 402.923C37.2947 403.878 37.4707 404.845 37.6144 405.8C37.7579 406.752 37.8689 407.741 37.6162 408.673C37.3642 409.604 36.3937 413.34 35.447 413.526C34.7166 413.67 33.9474 413.383 33.3812 412.898C32.8157 412.412 32.429 411.752 32.1319 411.068C31.1143 408.737 30.5756 406.081 30.6967 403.536C30.9851 397.475 36.4809 392.87 42.4011 393.732C43.3328 393.869 44.2675 394.062 45.2059 394.04Z" fill="#405AB1"/>
<path d="M42.4544 407.764C42.4544 410 40.6414 411.813 38.4057 411.813C36.1701 411.813 34.3582 410 34.3582 407.764C34.3582 405.527 36.1701 403.715 38.4057 403.715C40.6414 403.715 42.4544 405.527 42.4544 407.764Z" fill="#FFB27D"/>
<path d="M49.3901 439.363C45.2172 440.918 40.5095 441.896 36.3654 440.268C34.9416 439.707 33.6318 438.855 32.1581 438.445C30.8018 438.068 28.686 438.771 27.8898 439.932C27.3788 440.674 27.1501 441.553 27.0127 442.454L29.0603 455.929L28.7392 460.364C33.0809 462.561 38.223 462.741 43.1337 462.824C46.3844 462.882 49.6345 462.94 52.8852 462.996C54.3767 463.021 55.9503 463.027 57.2462 462.288C58.734 461.441 59.5484 459.792 60.2272 458.221C60.4436 457.72 60.6341 457.208 60.8411 456.704L60.8129 455.368L64.5306 438.526C60.1609 441.415 53.9781 441.87 49.3901 439.363Z" fill="#B1CCE1"/>
<path d="M18.8739 571.072C18.8682 571.953 18.9829 572.832 19.0972 573.706C19.4501 576.402 19.8036 579.097 20.1559 581.792C20.3026 582.909 20.4713 584.086 21.1541 584.98C21.8381 585.877 23.2191 586.345 24.1201 585.666C24.4932 585.385 24.725 584.961 24.9352 584.545C26.8949 580.662 27.8974 576.3 27.8284 571.95C27.7795 568.884 26.7664 565.774 23.4035 565.05C20.0168 564.317 18.8908 568.246 18.8739 571.072Z" fill="#405AB1"/>
<path d="M27.9317 465.564L61.1362 464.012L86.682 578.47L97.1171 572.199L84.1048 588.78L50.0914 494.434L50.6068 537.225L27.5443 567.795L26.0729 578.827L25.7486 581.31C25.5888 582.534 24.4747 583.401 23.2497 583.257C22.155 583.124 21.315 582.223 21.266 581.12L20.604 566.215L38.4568 537.176L25.8584 489.103L27.9317 465.564Z" fill="#FFB27D"/>
<path d="M29.0598 455.929C29.0598 455.929 37.5059 459.365 45.1708 458.855C52.837 458.343 60.8118 455.368 60.8118 455.368C60.8118 455.368 65.4422 476.745 69.019 491.061C72.5963 505.375 74.1291 520.541 74.1291 520.541C74.1291 520.541 56.0733 532.3 34.7801 526.334C34.7801 526.334 23.1967 496.855 24.0486 485.437C24.9007 474.021 29.0598 455.929 29.0598 455.929Z" fill="#405AB1"/>
<path d="M97.4652 574.002C97.9996 573.044 98.4763 571.694 97.6369 570.985C97.1298 570.562 96.3625 570.629 95.7543 570.892C93.9728 571.665 93.066 573.638 92.3499 575.444C88.4139 585.353 86.2078 581.619 82.537 583.619C80.0156 584.993 81.0305 586.193 83.329 588.403C87.2974 592.224 95.8345 576.929 97.4652 574.002Z" fill="#405AB1"/>
<path d="M52.5783 598.046C23.5403 598.046 0 594.186 0 589.424C0 586.658 7.93526 584.197 20.2753 582.621C20.4162 583.469 20.6389 584.304 21.1542 584.98C21.6125 585.581 22.3843 585.99 23.1146 585.99C23.4739 585.99 23.823 585.892 24.1203 585.666C24.4933 585.386 24.7253 584.962 24.9353 584.545C25.3573 583.709 25.7346 582.852 26.0663 581.976C33.8498 581.228 42.9103 580.801 52.5783 580.801C63.3703 580.801 73.4033 581.335 81.7504 582.249L82.2941 583.758C80.0853 585.076 81.1085 586.269 83.329 588.403C83.7648 588.823 84.2563 589.012 84.7867 589.012C86.7008 589.012 89.1333 586.559 91.372 583.604C99.9337 585.137 105.156 587.18 105.156 589.424C105.156 594.186 81.6169 598.046 52.5783 598.046Z" fill="#B8D0EE"/>
<path d="M23.1149 585.99C22.3844 585.99 21.6129 585.581 21.1544 584.98C20.6391 584.304 20.4164 583.469 20.2755 582.621C20.7644 582.558 21.2622 582.496 21.7651 582.436C22.1236 582.879 22.6484 583.184 23.2498 583.257C23.3393 583.268 23.4277 583.272 23.516 583.272C24.3794 583.272 25.1543 582.777 25.5298 582.027C25.7078 582.011 25.8871 581.992 26.0665 581.976C25.7348 582.851 25.3575 583.709 24.9355 584.545C24.7255 584.961 24.4935 585.385 24.1206 585.666C23.8234 585.892 23.4741 585.99 23.1149 585.99Z" fill="#395AB1"/>
<path d="M82.2939 583.758L81.7504 582.249C83.2581 582.414 84.7114 582.592 86.1038 582.781C85.006 582.923 83.8675 582.894 82.5372 583.619C82.4525 583.666 82.3711 583.71 82.2939 583.758ZM23.5159 583.273C23.4274 583.273 23.339 583.268 23.2494 583.257C22.6482 583.186 22.1234 582.879 21.7649 582.436C22.9824 582.292 24.2362 582.156 25.5296 582.028C25.1542 582.777 24.3792 583.273 23.5159 583.273Z" fill="#FFB27D"/>
<path d="M84.7866 589.012C84.2562 589.012 83.7648 588.823 83.329 588.403C81.1083 586.269 80.0853 585.076 82.294 583.758C82.371 583.71 82.4526 583.666 82.5371 583.619C83.8674 582.894 85.0061 582.923 86.1038 582.781C87.9733 583.035 89.7338 583.309 91.3719 583.604C89.1332 586.559 86.7008 589.012 84.7866 589.012Z" fill="#395AB1"/>
<path d="M12.3895 353.946H79.087V287.219H12.3895V353.946ZM82.0869 356.948H9.38715V284.216H82.0869V356.948Z" fill="#3157AF"/>
<path d="M88.6662 277.7L47.4901 319.525L35.2736 308.749L25.8882 319.404L48.1558 339.051L98.7685 287.684L88.6662 277.7Z" fill="#97B4E3"/>
</g>
</g>
<defs>
<clipPath id="clip0_0_687">
<rect width="668" height="624" fill="white" transform="translate(0 0.714355)"/>
</clipPath>
</defs>
</svg>
