<svg width="570" height="468" viewBox="0 0 570 468" fill="none" xmlns="http://www.w3.org/2000/svg">
<path d="M0.571045 259.985H569.571V427.622C569.571 446.478 569.571 455.906 563.713 461.764C557.855 467.622 548.427 467.622 529.571 467.622H40.5711C21.7149 467.622 12.2868 467.622 6.42891 461.764C0.571045 455.906 0.571045 446.478 0.571045 427.622V259.985Z" fill="#EDF4FF"/>
<path fill-rule="evenodd" clip-rule="evenodd" d="M202.329 376.521C202.271 376.369 202.154 376.241 202.002 376.171C201.851 376.101 201.676 376.101 201.524 376.148C198.817 377.151 194.33 377.967 190.795 377.967C183.06 377.967 179.373 375.88 179.373 364.018C179.373 354.536 180.505 350.069 190.795 350.069C193.712 350.069 197.241 350.489 200.683 351.492C200.963 351.574 201.266 351.446 201.395 351.189C202.35 349.088 203.736 345.69 204.756 343.189L204.757 343.189L204.761 343.179C204.9 342.837 205.033 342.511 205.157 342.208C205.238 342.045 205.238 341.859 205.168 341.695C205.098 341.532 204.958 341.404 204.783 341.345C200.257 339.899 194.855 339.059 189.99 339.059C173.785 339.059 166.563 346.699 166.563 363.843C166.563 381.233 173.785 388.989 189.99 388.989C194.05 388.989 202.053 388.137 205.915 386.598C206.218 386.47 206.382 386.12 206.265 385.817L202.329 376.521ZM76.9841 340.947C76.9841 340.621 77.2473 340.357 77.572 340.357L110.851 340.357C111.267 340.357 111.548 340.787 111.387 341.175L107.266 351.092C107.157 351.354 106.908 351.473 106.671 351.45C106.652 351.452 106.632 351.453 106.613 351.453H89.4469V387.1C89.4469 387.426 89.1837 387.69 88.859 387.69H77.572C77.2473 387.69 76.9841 387.426 76.9841 387.1V340.947ZM114.176 363.841C114.176 346.007 120.344 339.059 136.187 339.059C152.157 339.059 158.383 346.007 158.383 363.841C158.383 381.947 152.157 388.989 136.187 388.989C120.344 388.989 114.176 381.947 114.176 363.841ZM126.721 364.018C126.721 376.592 128.969 378.597 136.187 378.597C143.543 378.597 145.838 376.592 145.838 364.018C145.838 350.631 143.336 349.439 136.187 349.439C129.177 349.439 126.721 350.631 126.721 364.018Z" fill="#0066B3"/>
<path fill-rule="evenodd" clip-rule="evenodd" d="M297.142 376.52C297.084 376.368 296.967 376.24 296.816 376.17C296.664 376.1 296.489 376.1 296.337 376.147C293.631 377.15 289.144 377.966 285.609 377.966C277.873 377.966 274.187 375.879 274.187 364.017C274.187 354.535 275.318 350.068 285.609 350.068C288.525 350.068 292.055 350.488 295.497 351.491C295.777 351.573 296.08 351.444 296.208 351.188C297.163 349.087 298.55 345.689 299.57 343.188C299.711 342.842 299.845 342.513 299.97 342.207C300.052 342.044 300.052 341.857 299.982 341.694C299.912 341.531 299.772 341.403 299.597 341.344C295.07 339.898 289.669 339.058 284.804 339.058C268.598 339.058 261.377 346.698 261.377 363.842C261.377 381.232 268.598 388.988 284.804 388.988C288.864 388.988 296.867 388.136 300.729 386.597C301.032 386.469 301.195 386.119 301.079 385.815L297.142 376.52ZM211.679 340.356C211.271 340.356 210.988 340.759 211.128 341.139L228.277 387.696C225.857 392.804 223.168 398.18 220.093 404.173C219.892 404.566 220.173 405.04 220.613 405.04H232.813C233.034 405.04 233.239 404.912 233.339 404.714C242.366 386.272 249.009 369.924 258.091 341.136C258.215 340.755 257.935 340.356 257.535 340.356H246.204C245.941 340.356 245.708 340.536 245.636 340.789C242.14 353.096 238.916 362.73 235.179 372.014L223.659 340.739C223.574 340.509 223.354 340.356 223.107 340.356H211.679ZM307.016 387.689H318.607C318.854 387.689 319.088 387.523 319.159 387.287C320.944 381.657 322.529 375.318 323.868 368.331C325.02 362.365 325.722 356.712 326.139 351.451H337.469V387.098C337.469 387.424 337.732 387.689 338.057 387.689H349.344C349.668 387.689 349.932 387.424 349.932 387.098V340.946C349.932 340.62 349.668 340.356 349.344 340.356H314.896C314.579 340.356 314.32 340.604 314.309 340.922C313.992 347.993 313.24 355.913 311.807 364.506C310.41 372.816 308.39 380.311 306.452 386.933C306.346 387.311 306.628 387.689 307.016 387.689ZM412.054 340.356C411.73 340.356 411.467 340.62 411.467 340.946V387.098C411.467 387.424 411.73 387.689 412.054 387.689H423.341C423.666 387.689 423.929 387.424 423.929 387.098V351.451H441.095C441.115 351.451 441.134 351.45 441.154 351.448C441.39 351.472 441.639 351.353 441.748 351.091L445.869 341.174C446.031 340.786 445.749 340.356 445.334 340.356L412.054 340.356ZM357.018 341.139C356.878 340.759 357.162 340.356 357.57 340.356H368.998C369.244 340.356 369.465 340.509 369.549 340.739L381.069 372.014C384.806 362.73 388.03 353.096 391.527 340.789C391.599 340.536 391.831 340.356 392.094 340.356H403.426C403.825 340.356 404.106 340.755 403.982 341.136C394.9 369.924 388.257 386.272 379.229 404.714C379.129 404.912 378.925 405.04 378.703 405.04H366.504C366.063 405.04 365.783 404.566 365.984 404.173C369.059 398.18 371.748 392.804 374.168 387.696L357.018 341.139ZM481.304 340.356H492.585C492.914 340.356 493.172 340.615 493.16 340.945V341.015V384.394C493.16 384.653 493.008 384.888 492.761 384.971C487.532 386.973 478.719 388.987 470.822 388.987C457.298 388.987 451.822 383.051 451.552 367.893C451.54 367.857 451.54 341.015 451.54 341.015V340.945C451.54 340.615 451.798 340.356 452.127 340.356H463.408C463.737 340.356 463.995 340.615 463.995 340.945V367.634C464.254 375.69 466.24 377.621 473.079 377.621C475.828 377.621 478.272 377.291 480.716 376.608V340.945C480.716 340.615 480.975 340.356 481.304 340.356Z" fill="#EE2F53"/>
<path d="M565.838 190.283C565.473 208.038 561.399 225.472 554.997 242.055C554.068 244.405 548.952 259.433 546.623 259.433C542.983 259.434 539.343 259.434 535.703 259.434C495.334 259.441 454.965 259.447 414.596 259.452C335.044 259.463 255.492 259.475 175.94 259.484C128.829 259.489 81.7182 259.519 34.6066 259.491C31.5167 259.489 28.9427 255.625 27.1685 253.582C23.902 249.822 21.6311 245.549 20.2517 241.017C18.3724 234.841 17.1982 225.708 20.6874 214.093C22.5709 207.821 26.6096 201.497 29.6658 196.749C36.2275 186.552 44.7688 177.793 54.2005 170.046C65.042 161.143 78.9903 152.945 84.3304 139.517C92.2273 119.663 78.6767 100.181 80.5263 80.1748C83.6093 46.8202 117.83 21.891 147.892 10.6373C171.185 1.91772 197.003 -0.192049 221.784 0.572057C233.91 0.945781 246.018 2.10478 257.978 4.07403C268.904 5.87325 281.771 7.71233 291.788 12.5635C313.277 20.2649 331.878 32.7842 347.642 48.7908C355.3 56.5665 362.092 65.2968 370.451 72.3962C380.426 80.868 390.634 80.5636 403.053 78.2306C426.682 73.7411 449.766 68.8487 473.718 74.4906C496.914 79.9541 516.853 93.6004 533.316 109.951C555.086 131.574 566.437 160.118 565.838 190.283C565.827 190.722 565.845 189.796 565.867 188.87C565.895 187.357 565.925 185.845 565.838 190.283Z" fill="#EDF4FF"/>
<path d="M122.661 185.925C122.661 185.925 104.562 181.581 97.4525 192.463C90.3427 203.346 76.1232 203.768 68.6575 212.508C61.1923 221.249 55.5044 236.997 72.568 244.789C89.6315 252.579 132.074 241.145 132.074 241.145L140.186 190.444L122.661 185.925Z" fill="#E1ECFE"/>
<path d="M149.562 136.899C149.562 136.899 147.138 122.433 134.339 116.538C126.657 113.001 103.583 110.365 104.294 126.202C104.858 138.786 91.8506 137.247 96.9464 151.885C101.334 164.488 116.254 159.602 116.254 159.602L149.562 136.899Z" fill="#ACD29A"/>
<path d="M540.625 221.691C532.763 215.61 523.257 215.739 514.838 215.869C505.044 216.019 496.722 216.169 494.171 206.542C489.43 188.637 467.041 187.286 467.041 187.286L444.178 259.449C474.688 259.443 505.195 259.44 535.705 259.434C539.342 259.434 542.983 259.434 546.624 259.432C548.953 259.432 554.07 244.405 554.994 242.055C555.075 241.842 555.156 241.631 555.237 241.418C553.153 235.785 548.521 227.8 540.625 221.691Z" fill="#ACD29A"/>
<path d="M467.041 259.634H316.051V79.5173H467.041V259.634Z" fill="#98BAF4"/>
<path d="M389.706 260.252H219.18V120.634H389.706V260.252Z" fill="white"/>
<path d="M392.372 120.635H214.962V115.562H392.372V120.635Z" fill="white"/>
<path d="M329.51 159.206H219.178V133.254H329.51V159.206Z" fill="#325C92"/>
<path d="M116.254 192.463H219.18V137.175H116.254V192.463Z" fill="#AFCDFB"/>
<path d="M116.254 259.255H219.18V203.966H116.254V259.255Z" fill="#AFCDFB"/>
<path d="M219.179 203.966H130.52V192.463H219.179V203.966Z" fill="#7FA8E5"/>
<path d="M234.187 137.705C231.847 137.705 229.643 138.59 227.988 140.193C226.331 141.797 225.42 143.929 225.42 146.198C225.42 148.467 226.331 150.599 227.988 152.203C229.643 153.806 231.847 154.691 234.187 154.691C236.53 154.691 238.732 153.806 240.387 152.203C242.044 150.599 242.955 148.467 242.955 146.198C242.955 143.929 242.044 141.797 240.387 140.193C238.732 138.59 236.53 137.705 234.187 137.705ZM234.187 155.551C231.609 155.551 229.183 154.577 227.36 152.812C225.535 151.045 224.532 148.696 224.532 146.198C224.532 143.7 225.535 141.351 227.36 139.584C229.183 137.819 231.609 136.845 234.187 136.845C236.767 136.845 239.193 137.819 241.016 139.584C242.841 141.351 243.844 143.7 243.844 146.198C243.844 148.696 242.841 151.045 241.016 152.812C239.193 154.577 236.767 155.551 234.187 155.551Z" fill="white"/>
<path d="M240.425 144.673H235.763V140.157H232.612V144.673H227.95V147.723H232.612V152.238H235.763V147.723H240.425V144.673Z" fill="white"/>
<path d="M467.041 193.484V237.436H398.276V193.484H467.041Z" fill="#AFCDFB"/>
<path d="M467.041 128.767V172.719H398.276V128.767H467.041Z" fill="#AFCDFB"/>
<path d="M219.18 122.376L389.706 127.357V120.634H219.18V122.376Z" fill="#DFEBFD"/>
<path d="M219.18 142.319H109.815V136.845H219.18V142.319Z" fill="white"/>
<path d="M109.655 236.659C96.3039 239.596 92.7447 250.092 84.2905 243.795C75.8363 237.495 65.1567 241.696 59.3739 241.97C53.5884 242.242 54.4772 229.099 42.0178 224.9C36.0216 222.879 25.9915 222.522 18.8207 222.825C17.8752 230.356 18.8723 236.483 20.2515 241.017C21.6307 245.549 23.9017 249.822 27.1682 253.583C28.6813 255.323 30.7765 258.39 33.2769 259.257H131.014C135.908 247.844 123.003 233.718 109.655 236.659Z" fill="#ACD29A"/>
<path d="M365.543 258.812H245.718V198.188H365.543V258.812Z" fill="#98BAF4"/>
<path d="M362.07 259.016H249.743V202.429H362.07V259.016Z" fill="white"/>
<path d="M358.047 206.008V219.009H253.999V206.008H358.047Z" fill="#AFCDFB"/>
<path d="M284.423 222.541V258.773H253.998V222.541H284.423Z" fill="#AFCDFB"/>
<path d="M324.727 222.54V258.773H287.319V222.54H324.727Z" fill="#AFCDFB"/>
<path d="M358.046 222.541V258.773H327.298V222.541H358.046Z" fill="#AFCDFB"/>
<path d="M299.577 222.54H324.726V235.95L320.243 258.773H292.46L299.577 222.54Z" fill="#CCE1FF"/>
<path d="M320.208 258.812H292.223V229.435H320.208V258.812Z" fill="white"/>
<path d="M318.874 258.812H293.558V230.762H318.874V258.812Z" fill="#98BAF4"/>
<path d="M306.687 258.812H305.746V230.762H306.687V258.812Z" fill="white"/>
<path d="M303.488 244.787C303.488 244.468 303.755 244.209 304.085 244.209C304.417 244.209 304.684 244.468 304.684 244.787C304.684 245.108 304.417 245.366 304.085 245.366C303.755 245.366 303.488 245.108 303.488 244.787Z" fill="white"/>
<path d="M307.746 244.788C307.746 244.468 308.012 244.209 308.343 244.209C308.673 244.209 308.942 244.468 308.942 244.788C308.942 245.108 308.673 245.367 308.343 245.367C308.012 245.367 307.746 245.108 307.746 244.788Z" fill="white"/>
<path d="M263.676 222.541H279.081L274.164 258.773H258.76L263.676 222.541Z" fill="#CCE1FF"/>
<path d="M281.324 206.008L279.56 219.01H264.156L265.919 206.008H281.324Z" fill="#CCE1FF"/>
<path d="M334.576 222.541H349.979L345.064 258.773H329.658L334.576 222.541Z" fill="#CCE1FF"/>
<path d="M352.226 206.007L350.461 219.009H335.056L336.821 206.007H352.226Z" fill="#CCE1FF"/>
<path d="M330.607 206.007L328.053 219.01H300.268L302.823 206.007H330.607Z" fill="#CCE1FF"/>
<path d="M327.323 225.211H327.38L327.323 225.499V225.211Z" fill="#CCE1FF"/>
<path d="M237.28 258.79C237.28 258.79 236.539 252.45 243.175 250.844C249.811 249.237 252.416 243.499 260.12 248.319C267.825 253.138 265.387 258.79 265.387 258.79H237.28Z" fill="#ACD29A"/>
<path d="M430.417 172.718H407.663L417.617 128.767H440.371L430.417 172.718Z" fill="#BDD7FD"/>
<path d="M450.577 237.436H427.821L437.776 193.484H460.528L450.577 237.436Z" fill="#CCE1FF"/>
<path d="M418.217 193.484L408.263 237.436H398.275V193.484H418.217Z" fill="#CCE1FF"/>
<path d="M467.041 128.767V172.719H442.028L453.139 128.767H467.041Z" fill="#CCE1FF"/>
<path d="M139.026 173.889H134.34V169.491H139.026V173.889ZM133.47 173.889H128.784V169.491H133.47V173.889ZM139.026 168.65H134.34V163.69H139.026V168.65ZM133.47 168.65H128.784V163.69H133.47V168.65ZM139.026 162.848H134.34V157.581H139.026V162.848ZM133.47 162.848H128.784V157.581H133.47V162.848Z" fill="#A3C3F7"/>
<path d="M140.186 175.01H127.624V156.458H140.186V175.01ZM133.47 173.889V174.449H134.34V173.889H139.026V169.491H139.171V168.65H139.026V163.69H139.171V162.848H139.026V157.581H134.34V156.937H133.47V157.581H128.784V162.848H128.639V163.69H128.784V168.65H128.639V169.491H128.784V173.889H133.47Z" fill="#D7E6FD"/>
<path d="M139.172 163.689H134.34V162.848H139.172V163.689ZM133.47 163.689H128.784H128.639V162.848H128.784H133.47V163.689Z" fill="#D7E6FD"/>
<path d="M139.172 169.49H134.34V168.65H139.172V169.49ZM133.47 169.49H128.784H128.639V168.65H128.784H133.47V169.49Z" fill="#D7E6FD"/>
<path d="M134.34 174.449H133.47V156.937H134.34V157.581V162.848V163.69V168.65V169.491V173.889V174.449Z" fill="#D7E6FD"/>
<path d="M171.949 173.889H167.263V169.491H171.949V173.889ZM166.393 173.889H161.707V169.491H166.393V173.889ZM171.949 168.65H167.263V163.69H171.949V168.65ZM166.393 168.65H161.707V163.69H166.393V168.65ZM171.949 162.848H167.263V157.581H171.949V162.848ZM166.393 162.848H161.707V157.581H166.393V162.848Z" fill="#A3C3F7"/>
<path d="M173.108 175.01H160.547V156.458H173.108V175.01ZM166.393 173.889V174.449H167.262V173.889H171.949V169.491H172.094V168.65H171.949V163.69H172.094V162.848H171.949V157.581H167.262V156.937H166.393V157.581H161.706V162.848H161.562V163.69H161.706V168.65H161.562V169.491H161.706V173.889H166.393Z" fill="#D7E6FD"/>
<path d="M172.093 163.689H167.262V162.848H172.093V163.689ZM166.393 163.689H161.706H161.561V162.848H161.706H166.393V163.689Z" fill="#D7E6FD"/>
<path d="M172.093 169.49H167.262V168.65H172.093V169.49ZM166.393 169.49H161.706H161.561V168.65H161.706H166.393V169.49Z" fill="#D7E6FD"/>
<path d="M167.262 174.449H166.393V156.937H167.262V157.581V162.848V163.69V168.65V169.491V173.889V174.449Z" fill="#D7E6FD"/>
<path d="M204.871 173.889H200.184V169.491H204.871V173.889ZM199.315 173.889H194.628V169.491H199.315V173.889ZM204.871 168.65H200.184V163.69H204.871V168.65ZM199.315 168.65H194.628V163.69H199.315V168.65ZM204.871 162.848H200.184V157.581H204.871V162.848ZM199.315 162.848H194.628V157.581H199.315V162.848Z" fill="#A3C3F7"/>
<path d="M206.032 175.01H193.47V156.458H206.032V175.01ZM199.315 173.889V174.449H200.184V173.889H204.871V169.491H205.017V168.65H204.871V163.69H205.017V162.848H204.871V157.581H200.184V156.937H199.315V157.581H194.628V162.848H194.484V163.69H194.628V168.65H194.484V169.491H194.628V173.889H199.315Z" fill="#D7E6FD"/>
<path d="M205.017 163.689H200.184V162.848H205.017V163.689ZM199.315 163.689H194.628H194.485V162.848H194.628H199.315V163.689Z" fill="#D7E6FD"/>
<path d="M205.017 169.49H200.184V168.65H205.017V169.49ZM199.315 169.49H194.628H194.485V168.65H194.628H199.315V169.49Z" fill="#D7E6FD"/>
<path d="M200.184 174.449H199.315V156.937H200.184V157.581V162.848V163.69V168.65V169.491V173.889V174.449Z" fill="#D7E6FD"/>
<path d="M139.026 233.653H134.34V229.256H139.026V233.653ZM133.47 233.653H128.784V229.256H133.47V233.653ZM139.026 228.414H134.34V223.457H139.026V228.414ZM133.47 228.414H128.784V223.457H133.47V228.414ZM139.026 222.614H134.34V217.346H139.026V222.614ZM133.47 222.614H128.784V217.346H133.47V222.614Z" fill="#A3C3F7"/>
<path d="M140.186 234.777H127.624V216.223H140.186V234.777ZM133.47 233.653V234.216H134.34V233.653H139.026V229.256H139.171V228.414H139.026V223.456H139.171V222.614H139.026V217.346H134.34V216.704H133.47V217.346H128.784V222.614H128.639V223.456H128.784V228.414H128.639V229.256H128.784V233.653H133.47Z" fill="#D7E6FD"/>
<path d="M139.172 223.456H134.34V222.614H139.172V223.456ZM133.47 223.456H128.784H128.639V222.614H128.784H133.47V223.456Z" fill="#D7E6FD"/>
<path d="M139.172 229.256H134.34V228.414H139.172V229.256ZM133.47 229.256H128.784H128.639V228.414H128.784H133.47V229.256Z" fill="#D7E6FD"/>
<path d="M134.34 234.216H133.47V216.704H134.34V217.346V222.615V223.456V228.414V229.256V233.653V234.216Z" fill="#D7E6FD"/>
<path d="M171.949 233.653H167.263V229.256H171.949V233.653ZM166.393 233.653H161.707V229.256H166.393V233.653ZM171.949 228.414H167.263V223.457H171.949V228.414ZM166.393 228.414H161.707V223.457H166.393V228.414ZM171.949 222.614H167.263V217.346H171.949V222.614ZM166.393 222.614H161.707V217.346H166.393V222.614Z" fill="#A3C3F7"/>
<path d="M173.108 234.777H160.547V216.223H173.108V234.777ZM166.393 233.653V234.216H167.262V233.653H171.949V229.256H172.094V228.414H171.949V223.456H172.094V222.614H171.949V217.346H167.262V216.704H166.393V217.346H161.706V222.614H161.562V223.456H161.706V228.414H161.562V229.256H161.706V233.653H166.393Z" fill="#D7E6FD"/>
<path d="M172.093 223.456H167.262V222.614H172.093V223.456ZM166.393 223.456H161.706H161.561V222.614H161.706H166.393V223.456Z" fill="#D7E6FD"/>
<path d="M172.093 229.256H167.262V228.414H172.093V229.256ZM166.393 229.256H161.706H161.561V228.414H161.706H166.393V229.256Z" fill="#D7E6FD"/>
<path d="M167.262 234.216H166.393V216.704H167.262V217.346V222.615V223.456V228.414V229.256V233.653V234.216Z" fill="#D7E6FD"/>
<path d="M204.871 233.653H200.184V229.256H204.871V233.653ZM199.315 233.653H194.628V229.256H199.315V233.653ZM204.871 228.414H200.184V223.457H204.871V228.414ZM199.315 228.414H194.628V223.457H199.315V228.414ZM204.871 222.614H200.184V217.346H204.871V222.614ZM199.315 222.614H194.628V217.346H199.315V222.614Z" fill="#A3C3F7"/>
<path d="M206.032 234.777H193.47V216.223H206.032V234.777ZM199.315 233.653V234.216H200.184V233.653H204.871V229.256H205.017V228.414H204.871V223.456H205.017V222.614H204.871V217.346H200.184V216.704H199.315V217.346H194.628V222.614H194.484V223.456H194.628V228.414H194.484V229.256H194.628V233.653H199.315Z" fill="#D7E6FD"/>
<path d="M205.017 223.456H200.184V222.614H205.017V223.456ZM199.315 223.456H194.628H194.485V222.614H194.628H199.315V223.456Z" fill="#D7E6FD"/>
<path d="M205.017 229.256H200.184V228.414H205.017V229.256ZM199.315 229.256H194.628H194.485V228.414H194.628H199.315V229.256Z" fill="#D7E6FD"/>
<path d="M200.184 234.216H199.315V216.704H200.184V217.346V222.615V223.456V228.414V229.256V233.653V234.216Z" fill="#D7E6FD"/>
<path d="M394.73 185.925H216.528V179.852H394.73V185.925Z" fill="#DFEBFD"/>
<path d="M157.903 136.845C157.903 136.845 160.984 127.135 168.568 127.357C176.152 127.579 178.521 134.34 181.13 133.255C183.736 132.17 191.32 132.796 191.796 136.845H157.903Z" fill="#ACD29A"/>
<path d="M519.107 225.346V229.462C519.107 229.827 519.018 230.18 518.857 230.491C518.469 231.246 517.652 231.766 516.727 231.766H515.963C514.659 231.766 513.586 230.731 513.586 229.462V225.346C513.586 224.913 513.715 224.51 513.932 224.164V224.158C514.353 223.488 515.107 223.042 515.963 223.042H516.727C518.037 223.042 519.107 224.082 519.107 225.346Z" fill="#233862"/>
<path d="M516.73 231.766H515.966C514.659 231.766 513.586 230.731 513.586 229.462V225.346C513.586 224.913 513.715 224.509 513.932 224.163C513.978 224.417 514.988 230.063 518.858 230.491C518.47 231.245 517.654 231.766 516.73 231.766Z" fill="#233862"/>
<path d="M481.373 255.462H493.138V243.963H480.862L481.373 255.462Z" fill="#172944"/>
<path d="M518.472 231.153L460.667 232.534V203.013H498.625C502.246 203.013 505.557 204.975 507.208 208.092L509.694 212.788L518.472 231.153Z" fill="white"/>
<path d="M485.635 253.592C485.635 256.714 487.297 260.158 487.297 260.158C487.297 260.158 489.77 260.158 490.112 260.158C492.585 260.158 494.59 257.217 494.59 253.592C494.59 249.966 489.77 247.026 487.297 247.026C484.824 247.026 485.635 249.966 485.635 253.592Z" fill="#233862"/>
<path d="M482.821 253.592C482.821 257.217 484.825 260.158 487.3 260.158C489.771 260.158 491.777 257.217 491.777 253.592C491.777 249.966 489.771 247.026 487.3 247.026C484.825 247.026 482.821 249.966 482.821 253.592Z" fill="#2B478B"/>
<path d="M483.982 253.592C483.982 256.323 485.491 258.536 487.356 258.536C489.218 258.536 490.727 256.323 490.727 253.592C490.727 250.86 489.218 248.647 487.356 248.647C485.491 248.647 483.982 250.86 483.982 253.592Z" fill="#AFCDFB"/>
<path d="M518 253.592C518 256.714 519.663 260.158 519.663 260.158C519.663 260.158 522.135 260.158 522.476 260.158C524.948 260.158 526.956 257.217 526.956 253.592C526.956 249.966 522.135 247.026 519.663 247.026C517.191 247.026 518 249.966 518 253.592Z" fill="#233862"/>
<path d="M515.184 253.592C515.184 257.217 517.188 260.158 519.661 260.158C522.134 260.158 524.138 257.217 524.138 253.592C524.138 249.966 522.134 247.026 519.661 247.026C517.188 247.026 515.184 249.966 515.184 253.592Z" fill="#2B478B"/>
<path d="M443.679 253.592C443.679 256.713 445.341 260.157 445.341 260.157C445.341 260.157 447.813 260.157 448.157 260.157C450.629 260.157 452.634 257.217 452.634 253.592C452.634 249.966 447.813 247.026 445.341 247.026C442.869 247.026 443.679 249.966 443.679 253.592Z" fill="#233862"/>
<path d="M440.863 253.592C440.863 257.217 442.867 260.158 445.342 260.158C447.813 260.158 449.817 257.217 449.817 253.592C449.817 249.966 447.813 247.026 445.342 247.026C442.867 247.026 440.863 249.966 440.863 253.592Z" fill="#2B478B"/>
<path d="M531.413 250.494C531.42 253.238 529.123 255.462 526.294 255.462H493.138C493.236 254.924 493.286 254.365 493.286 253.79C493.286 249.545 490.656 246.1 487.419 246.1C484.175 246.1 481.545 249.545 481.545 253.79C481.545 254.365 481.589 254.924 481.686 255.462H462.313C462.313 255.462 461.532 247.085 461.63 242.884C461.704 239.227 461.704 232.063 461.481 230.317C461.481 230.056 480.164 230.026 484.879 230.008C485.52 230 485.903 230 485.94 230L486.004 230.045L486.075 230.093C486.947 230.683 491.821 233.992 494.846 235.931C497.513 237.636 517.21 238.33 524.933 238.539C526.852 238.589 528.035 238.608 528.035 238.608C528.035 238.608 529.089 239.655 530.025 241.31C530.743 242.592 531.383 244.241 531.396 246.043C531.399 247.166 531.406 248.517 531.406 249.842C531.413 250.059 531.413 250.275 531.413 250.494Z" fill="white"/>
<path d="M513.812 230H487.834C487.233 230 486.69 229.66 486.438 229.132L480.009 215.277C479.797 214.825 480.143 214.311 480.654 214.311H508.061C508.66 214.311 509.212 214.657 509.455 215.198L514.061 225.39L515.212 227.937C515.647 228.91 514.911 230 513.812 230Z" fill="#98BAF4"/>
<path d="M501.708 249.842C501.705 250.278 501.686 250.686 501.66 251.051C501.476 253.463 498.974 255.462 498.974 255.462H493.137C493.233 254.923 493.284 254.366 493.284 253.79C493.284 252.347 492.978 250.995 492.452 249.842C491.423 247.6 489.556 246.099 487.418 246.099C485.274 246.099 483.406 247.6 482.374 249.842C481.852 250.995 481.543 252.347 481.543 253.79C481.543 254.366 481.59 254.923 481.686 255.462H460.667V203.015H477.541L477.621 212.788C477.621 212.788 477.904 214.254 478.481 215.562C478.997 216.732 479.682 218.288 480.428 219.983C481.964 223.457 483.757 227.511 484.879 230.008C485.44 231.272 485.838 232.132 485.939 232.319C486.255 232.9 490.935 235.358 494.896 237.538C495.881 238.082 496.827 238.609 497.642 239.083C498.809 239.764 499.72 240.338 500.15 240.715C501.23 241.657 501.769 246.554 501.708 249.842Z" fill="#DFEBFD"/>
<path d="M528.034 238.608H497.245L486.005 230.045L485.938 230.001H516.998L525.838 236.892L528.034 238.608Z" fill="white"/>
<path d="M501.233 243.639L498.448 243.373C497.477 243.28 496.688 242.573 496.516 241.644L495.876 238.235C495.867 238.18 495.857 238.13 495.867 238.074C497.85 239.177 499.52 240.163 500.151 240.715C500.612 241.116 500.978 242.233 501.233 243.639Z" fill="#A8302D"/>
<path d="M509.696 212.788H477.622C477.622 212.788 477.496 210.8 476.694 208.53C475.976 206.526 474.737 204.288 472.569 203.013H498.778C503.051 203.013 506.836 205.223 508.343 208.53C508.415 208.667 508.476 208.804 508.527 208.94C508.977 210.09 509.385 211.374 509.696 212.788Z" fill="white"/>
<path d="M501.239 243.639L498.451 243.373C497.477 243.28 496.691 242.573 496.519 241.644L495.876 238.235C495.866 238.18 495.86 238.124 495.866 238.069C497.849 239.177 499.521 240.163 500.15 240.715C500.612 241.116 500.978 242.232 501.239 243.639Z" fill="#A2C2DD"/>
<path d="M531.413 250.494C531.42 253.238 529.015 255.462 526.044 255.462H493.138C493.236 254.925 493.287 254.365 493.287 253.79C493.287 252.347 492.98 250.995 492.455 249.842H531.406C531.413 250.059 531.413 250.275 531.413 250.494Z" fill="#233862"/>
<path d="M481.546 253.79C481.546 254.366 481.588 254.924 481.684 255.463H460.667V249.842H482.377C481.853 250.995 481.546 252.347 481.546 253.79Z" fill="#233862"/>
<path d="M509.736 238.85H522.325C522.727 238.85 523.035 239.376 522.976 239.959L522.528 244.196C522.461 244.818 522.097 245.279 521.662 245.279H511.291C510.628 245.279 510.041 244.64 509.848 243.71L509.099 240.107C508.97 239.481 509.288 238.85 509.736 238.85Z" fill="#233862"/>
<path d="M514.062 225.39C499.212 224.652 489.166 216.958 486.132 214.311H508.061C508.661 214.311 509.212 214.657 509.457 215.197L514.062 225.39Z" fill="#AFCDFB"/>
<path d="M466.609 203.011V255.468H410.437V203.011H466.609Z" fill="white"/>
<path d="M509.696 212.788H477.622C477.622 212.788 477.496 210.8 476.694 208.53H508.343C508.415 208.667 508.476 208.804 508.527 208.94C508.977 210.09 509.385 211.374 509.696 212.788Z" fill="#DFEBFD"/>
<path d="M530.024 241.309C529.846 241.594 529.614 241.782 529.365 241.824L525.045 242.6C524.682 242.665 524.4 242.053 524.497 241.42L524.917 238.608L524.93 238.539L525.015 237.964C525.092 237.467 525.317 237.09 525.589 236.984L525.838 236.892L528.035 238.608C528.035 238.608 529.09 239.654 530.024 241.309Z" fill="#233862"/>
<path d="M500.152 241.959H410.436V237.536H500.152V241.959Z" fill="#325C92"/>
<path d="M466.609 212.101V216.52H410.437V212.101H466.609Z" fill="#325C92"/>
<path d="M430.524 226.93C430.524 222.654 434.105 219.188 438.522 219.188C442.937 219.188 446.516 222.654 446.516 226.93C446.516 231.207 442.937 234.675 438.522 234.675C434.105 234.675 430.524 231.207 430.524 226.93Z" fill="#325C92"/>
<path d="M438.522 220.705C436.806 220.705 435.192 221.352 433.978 222.529C432.764 223.705 432.094 225.268 432.094 226.93C432.094 228.594 432.764 230.156 433.978 231.333C435.192 232.508 436.806 233.156 438.522 233.156C440.238 233.156 441.852 232.508 443.066 231.333C444.282 230.156 444.95 228.594 444.95 226.93C444.95 225.268 444.282 223.705 443.066 222.529C441.852 221.352 440.238 220.705 438.522 220.705ZM438.522 233.787C436.632 233.787 434.853 233.074 433.518 231.779C432.179 230.483 431.443 228.762 431.443 226.93C431.443 225.1 432.179 223.377 433.518 222.081C434.853 220.788 436.632 220.074 438.522 220.074C440.412 220.074 442.191 220.788 443.526 222.081C444.864 223.377 445.6 225.1 445.6 226.93C445.6 228.762 444.864 230.483 443.526 231.779C442.191 233.074 440.412 233.787 438.522 233.787Z" fill="white"/>
<path d="M443.093 225.813H439.676V222.502H437.367V225.813H433.95V228.048H437.367V231.359H439.676V228.048H443.093V225.813Z" fill="white"/>
<path d="M506.518 244.148L501.24 243.639H501.233L498.449 243.373C497.475 243.28 496.69 242.573 496.518 241.644L495.877 238.235C495.867 238.18 495.857 238.13 495.867 238.074V238.068C495.832 237.351 496.512 236.768 497.273 236.916L505.494 238.533C506.019 238.639 506.435 239.016 506.577 239.513L507.543 242.971C507.72 243.602 507.189 244.216 506.518 244.148Z" fill="#233862"/>
<path d="M477.728 216.803L483.262 230.002H473.767C473.767 230.002 471.819 229.687 471.57 225.832C471.303 221.717 471.303 214.614 471.303 214.614L475.473 214.596C477.058 214.827 477.307 215.673 477.728 216.803Z" fill="#98BAF4"/>
<path d="M480.444 223.226C480.444 223.226 480.926 228.561 478.207 230.021H483.286L480.444 223.226Z" fill="#233862"/>
<path d="M481.192 226.795C481.192 226.795 480.047 226.005 479.946 225.349V229.08H481.449L481.192 226.795Z" fill="#233862"/>
<path d="M479.945 225.348V229.462C479.945 229.827 479.856 230.18 479.695 230.491C479.304 231.246 478.492 231.766 477.564 231.766H476.801C475.498 231.766 474.423 230.732 474.423 229.462V225.348C474.423 224.913 474.551 224.51 474.768 224.164V224.158C475.189 223.489 475.947 223.042 476.801 223.042H477.564C478.873 223.042 479.945 224.082 479.945 225.348Z" fill="#233862"/>
<path d="M466.662 253.79C466.662 254.366 466.745 254.924 466.924 255.462H428.247V249.842H468.194C467.228 250.995 466.662 252.347 466.662 253.79Z" fill="#233862"/>
<path d="M448.851 253.79C448.851 254.366 448.932 254.924 449.11 255.463H410.436V249.843H450.382C449.417 250.996 448.851 252.347 448.851 253.79Z" fill="#233862"/>
<path d="M428.784 255.466H414.967C414.674 254.258 413.797 245.658 421.538 245.658C428.575 245.657 429.094 253.505 428.784 255.466Z" fill="#172944"/>
<path d="M419.292 253.592C419.292 256.714 420.952 260.158 420.952 260.158C420.952 260.158 423.425 260.158 423.769 260.158C426.242 260.158 428.246 257.217 428.246 253.592C428.246 249.966 423.427 247.026 420.952 247.026C418.479 247.026 419.292 249.966 419.292 253.592Z" fill="#233862"/>
<path d="M416.475 253.592C416.475 257.217 418.478 260.158 420.951 260.158C423.427 260.158 425.43 257.217 425.43 253.592C425.43 249.966 423.427 247.026 420.951 247.026C418.478 247.026 416.475 249.966 416.475 253.592Z" fill="#2B478B"/>
<path d="M417.638 253.592C417.638 256.323 419.148 258.536 421.011 258.536C422.874 258.536 424.384 256.323 424.384 253.592C424.384 250.86 422.874 248.647 421.011 248.647C419.148 248.647 417.638 250.86 417.638 253.592Z" fill="#AFCDFB"/>
<path d="M328.65 199.679C328.364 199.145 334.897 197.22 335 202.496C335 202.496 347.236 202.205 341.392 195.601C339.371 193.313 339.579 191.424 339.639 189.664C339.702 187.904 338.379 182.789 333.85 183.304C333.85 183.304 332.666 182.835 331.186 183.579C327.82 185.271 320.28 201.627 328.65 199.679Z" fill="#163560"/>
<path d="M348.656 205.58C348.656 205.58 349.45 204.404 350.092 204.383C350.734 204.358 351.922 204.037 351.827 204.267C351.733 204.497 350.996 204.519 350.925 204.658C350.852 204.797 352.018 205.004 352.35 205.027C352.682 205.051 353.468 205.027 353.443 205.188C353.42 205.348 352.029 206.017 351.048 205.924C350.069 205.833 348.856 206.201 348.856 206.201L348.656 205.58Z" fill="#FFB27D"/>
<path d="M337.135 205.96C337.135 205.96 337.567 206.79 338.353 207.744C339.301 208.893 340.757 210.218 342.59 210.48C343.466 210.605 344.321 210.423 345.11 210.085L345.112 210.083C347.336 209.126 349.009 206.927 349.009 206.927C349.4 205.891 348.759 205.188 348.759 205.188C348.759 205.188 344.267 206.167 343.837 205.96C343.409 205.752 340.915 198.789 340.321 197.913C339.726 197.038 337.7 196.583 337.7 196.583L337.135 205.96Z" fill="#163560"/>
<path d="M320.373 252.931C320.373 252.931 319.002 254.144 319.269 255.004C319.536 255.864 320.775 256.439 320.942 257.491C321.108 258.544 321.778 259.117 322.38 259.117C322.98 259.117 325.25 259.117 325.25 259.117C325.25 259.117 325.693 258.377 324.622 258.153C323.553 257.931 323.148 256.693 323.216 255.546C323.283 254.399 323.115 252.868 323.115 252.868L320.841 252.357L320.373 252.931Z" fill="#233862"/>
<path d="M331.977 253.445C331.977 253.445 331.484 258.579 332.087 258.866L339.789 258.851C339.789 258.851 339.788 257.99 338.552 257.798C337.313 257.607 335.141 256.906 334.772 255.342C334.406 253.78 331.977 253.445 331.977 253.445Z" fill="#233862"/>
<path d="M326.488 216.617C328.075 213.174 329.044 212.186 328.859 211.118C328.72 210.322 329.277 196.289 329.277 196.289C329.467 196.232 329.844 196.182 330.051 196.138C330.701 195.997 331.239 195.554 331.463 194.948C331.733 194.217 331.946 193.136 331.942 191.781L332.144 191.82L335.559 192.475C335.559 192.475 335.48 193.515 335.48 194.496V194.52C335.476 195.372 336.05 196.123 336.897 196.36C337.326 196.48 337.701 196.583 337.701 196.583C337.701 196.583 338.957 200.05 339.195 203.611C339.435 207.171 336.917 208.718 339.215 215.835C341.561 223.103 325.614 218.519 326.488 216.617Z" fill="#FFB27D"/>
<path d="M335.559 192.475C335.559 192.475 335.481 193.515 335.479 194.496C333.568 194.444 332.558 192.755 332.144 191.82L335.559 192.475Z" fill="#E8945B"/>
<path d="M336.197 193.402C336.197 193.402 331.677 193.475 331.673 190.749C331.67 188.021 331.084 186.194 333.971 186.034C336.856 185.871 337.419 186.911 337.647 187.821C337.876 188.732 337.373 193.314 336.197 193.402Z" fill="#FFB27D"/>
<path d="M336.029 185.967C336.029 185.967 334.79 189.164 332.892 189.638C330.992 190.112 330.17 189.618 330.17 189.618C330.17 189.618 331.628 188.497 331.929 186.54C331.929 186.54 335.097 184.444 336.029 185.967Z" fill="#163560"/>
<path d="M335.72 186.227C335.72 186.227 336.638 186.558 337.014 187.207C337.385 187.84 337.698 188.681 337.626 189.709C337.626 189.709 338.558 187.535 337.512 186.306C336.4 185.002 335.72 186.227 335.72 186.227Z" fill="#163560"/>
<path d="M335.212 191.712C335.212 191.712 335.523 192.11 336.147 192.081C336.649 192.058 336.842 191.636 336.842 191.636C336.842 191.636 335.92 191.422 335.212 191.712Z" fill="#EBF3FA"/>
<path d="M327.104 202.497C327.104 202.497 327.121 204.573 327.235 206.453C327.312 207.701 327.431 208.861 327.615 209.276C328.079 210.312 328.602 210.48 328.602 210.48L332.648 211.439L334.069 211.776L338.552 210.48C338.552 210.48 340.595 204.958 339.776 201.849C338.954 198.742 337.701 196.582 337.701 196.582C337.701 196.582 334.043 200.054 329.277 196.287L327.104 202.497Z" fill="#163560"/>
<path d="M338.269 211.316C338.269 211.316 340.489 218.012 340.633 220.292C340.773 222.57 336.385 252.672 336.209 253.721C336.042 254.711 334.773 255.342 334.773 255.342C334.773 255.342 334.191 255.677 333.358 255.45C332.201 255.133 331.834 254.754 331.834 254.754C331.834 254.754 330.106 233.287 331.177 225.618C332.245 217.949 332.258 211.316 332.258 211.316H338.269Z" fill="#9DB0F4"/>
<path d="M328.858 211.118C328.858 211.118 325.471 215.519 325.155 218.495C324.838 221.471 324.659 231.924 323.987 234.825C323.313 237.726 320.841 243.309 320.841 252.357C320.841 252.357 321.1 252.875 321.893 253.153C322.146 253.24 322.486 253.327 322.815 253.399C323.47 253.545 324.142 253.234 324.439 252.653C326.111 249.394 331.435 238.883 331.708 236.701C331.9 235.156 333.582 224.937 337.247 218.941C338.128 217.501 336.708 211.775 336.708 211.775L328.858 211.118Z" fill="#AEC3FF"/>
<path d="M335.309 191.786C335.309 191.786 335.39 192.106 336.214 192.056C336.214 192.056 336.908 192.015 336.886 191.662C336.886 191.662 336.214 191.411 335.309 191.786Z" fill="white"/>
<path d="M338.622 210.284C338.622 210.284 337.732 210.967 335.96 211.002C333.845 211.043 328.601 210.478 328.601 210.478C328.601 210.478 328.369 211.109 328.378 211.776C328.378 211.776 334.781 213.339 338.49 212.003C338.49 212.003 338.97 211.132 338.622 210.284Z" fill="#233862"/>
<path d="M335.819 211.71C335.819 212.122 336.109 212.457 336.466 212.457C336.821 212.457 337.111 212.122 337.111 211.71C337.111 211.297 336.821 210.962 336.466 210.962C336.109 210.962 335.819 211.297 335.819 211.71ZM335.499 211.71C335.499 211.126 335.932 210.651 336.466 210.651C336.997 210.651 337.431 211.126 337.431 211.71C337.431 212.292 336.997 212.768 336.466 212.768C335.932 212.768 335.499 212.292 335.499 211.71Z" fill="white"/>
<path d="M320.417 221.698L330.493 223.802L331.71 218.333L321.636 216.228L320.417 221.698Z" fill="#163560"/>
<path d="M331.709 218.333C331.709 218.333 328.894 220.618 325.763 219.824C322.632 219.028 321.636 216.228 321.636 216.228L331.709 218.333Z" fill="#17467F"/>
<path d="M329.929 217.975C329.929 218.174 330.097 218.335 330.302 218.335C330.51 218.335 330.674 218.174 330.674 217.975C330.674 217.775 330.51 217.612 330.302 217.612C330.097 217.612 329.929 217.775 329.929 217.975ZM329.742 217.975C329.742 217.675 329.993 217.433 330.302 217.433C330.61 217.433 330.862 217.675 330.862 217.975C330.862 218.272 330.61 218.516 330.302 218.516C329.993 218.516 329.742 218.272 329.742 217.975Z" fill="#17467F"/>
<path d="M322.101 218.661C322.101 218.661 322.097 219.454 321.941 219.836C321.787 220.218 321.32 220.728 321.165 220.728C321.009 220.728 321.309 219.931 321.23 219.947C321.151 219.964 320.778 221.273 320.505 221.304C320.234 221.337 319.988 219.836 320.132 219.246C320.273 218.657 320.886 217.951 320.886 217.951L322.101 218.661Z" fill="#FFB27D"/>
<path d="M329.279 196.29C329.279 196.29 326.778 196.617 325.431 199.186C324.393 201.17 323.678 207.412 322.943 209.379C322.243 211.259 321.273 214.896 320.733 217.808C320.691 218.036 320.819 218.258 321.038 218.343L321.958 218.695C322.158 218.773 322.384 218.698 322.491 218.521C323.309 217.192 326.532 211.869 327.649 208.792C328.959 205.193 331.404 202.958 331.404 202.958L329.279 196.29Z" fill="#163560"/>
<path d="M330.486 217.555C330.492 217.466 331.074 208.563 330.96 203.559C330.905 200.931 330.486 199.078 330.143 197.989C329.771 196.798 329.215 196.312 329.2 196.288L329.01 196.343C329.023 196.365 330.567 198.614 330.676 203.564C330.787 208.557 330.206 217.448 330.201 217.536L330.486 217.555Z" fill="#0C2442"/>
<path d="M174.076 254.395L172.648 253.945C172.648 253.945 172.353 250.192 172.988 245.693C173.39 242.843 174.127 239.757 175.463 237.278C176.069 236.155 176.795 235.158 177.67 234.364C177.67 234.364 178.765 231.901 180.217 228.606C181.83 224.945 191.927 223.871 186.165 231.542C184.985 233.116 183.714 235.887 182.193 237.569C179.594 240.445 177.76 243.804 176.499 246.759C174.699 250.987 174.076 254.395 174.076 254.395Z" fill="#FFB27D"/>
<path d="M170.826 254.604C170.393 255.283 171.328 255.95 172.484 256.577C173.64 257.202 173.161 257.265 174.64 258.333C176.118 259.399 176.99 259.28 177.217 259.125C177.418 258.986 176.814 258.327 176.18 257.607C176.099 257.516 176.021 257.426 175.941 257.333C175.233 256.512 175.128 255.481 174.796 254.411C174.481 253.399 174.98 250.881 174.98 250.881L173.006 249.363C173.006 249.363 172.605 251.652 172.385 252.605C172.255 253.168 171.781 253.636 171.398 253.982C171.19 254.171 170.978 254.364 170.826 254.604Z" fill="#FFB27D"/>
<path d="M172.484 256.577C173.64 257.202 173.161 257.265 174.64 258.333C176.118 259.399 176.99 259.28 177.217 259.125C177.418 258.986 176.814 258.327 176.18 257.607L176.161 257.615C176.161 257.615 174.825 257.441 173.684 256.46C172.755 255.661 172.035 254.539 171.398 253.982C171.19 254.171 170.978 254.364 170.826 254.604C170.393 255.283 171.328 255.95 172.484 256.577Z" fill="#1C468A"/>
<path d="M165.637 256.832L163.992 257.657C163.992 257.657 163.007 256.416 162.128 254.915C161.512 253.865 160.947 252.687 160.809 251.722C160.473 249.378 157.911 245.527 158.178 244.872C158.444 244.215 163.524 243.08 163.524 243.08C163.524 243.08 164.517 249.665 165.178 253.921C165.37 255.165 165.534 256.209 165.637 256.832Z" fill="#FFB27D"/>
<path d="M164.384 247.638C163.444 248.081 162.57 248.334 161.821 248.477C160.704 248.688 159.863 248.653 159.492 248.617C159.354 248.604 159.281 248.591 159.281 248.591C159.281 248.591 158.367 247.953 157.308 246.467C156.336 245.105 155.615 243.156 155.615 243.132L163.372 242.401L164.384 247.638Z" fill="#2B478B"/>
<path d="M161.821 248.477C160.703 248.688 159.863 248.653 159.492 248.617L160.363 245.336C160.363 245.336 161.492 247.046 161.821 248.477Z" fill="#233862"/>
<path d="M165.638 256.832L163.992 257.657C163.992 257.657 163.007 256.416 162.128 254.915C162.813 254.865 164.003 254.667 165.178 253.921C165.371 255.165 165.534 256.209 165.638 256.832Z" fill="white"/>
<path d="M161.898 244.585C161.898 244.585 159.818 247.427 158.559 251.421C158.262 252.361 157.253 253.532 156.231 254.575C155.241 255.584 154.24 256.471 153.87 256.908L152.193 256.127C152.193 256.127 152.782 254.489 153.654 253.005C153.977 252.451 154.339 251.921 154.726 251.502C155.259 250.923 155.083 243.615 155.615 243.132C156.147 242.651 161.898 244.585 161.898 244.585Z" fill="#FFB27D"/>
<path d="M162.888 242.893L159.818 248.937C159.8 248.939 157.53 249.006 155.918 248.131C154.993 247.629 154.578 247.037 154.578 247.037L155.535 242.893H162.888Z" fill="#2B478B"/>
<path d="M157.389 222.713C157.389 222.713 156.345 220.586 153.822 221.852C151.299 223.118 153.755 227.944 152.431 229.136C151.107 230.33 152.911 231.109 152.643 231.964C152.374 232.819 153.141 233.792 154.907 233.677C156.672 233.563 158.531 233.655 159.329 232.16C160.126 230.663 159.945 227.372 159.637 226.91C159.329 226.447 157.389 222.713 157.389 222.713Z" fill="#163560"/>
<path d="M161.478 234.06L157.188 231.555C157.211 231.545 157.298 231.42 157.619 230.52C157.755 230.137 157.828 229.806 157.864 229.542C157.867 229.515 157.87 229.49 157.873 229.465C157.917 229.082 157.885 228.86 157.885 228.86L158.825 229.19L160.563 229.801C160.543 230.226 160.604 230.528 160.698 230.733C160.925 231.232 161.348 231.236 161.36 231.236L161.478 234.06Z" fill="#FFB27D"/>
<path d="M160.698 230.733C159.018 230.87 158.073 229.81 157.864 229.542C157.833 229.503 157.817 229.48 157.817 229.48C157.817 229.48 157.837 229.475 157.873 229.466C158.01 229.427 158.38 229.317 158.825 229.19L160.563 229.801C160.543 230.226 160.604 230.528 160.698 230.733Z" fill="#ED985F"/>
<path d="M160.783 230.148C160.783 230.148 157.05 230.546 156.974 228.101C156.898 225.657 156.346 224.539 158.928 224.32C161.51 224.104 162.12 225.003 162.272 225.831C162.748 228.414 161.834 230.039 160.783 230.148Z" fill="#FFB27D"/>
<path d="M153.822 221.851C153.77 221.739 153.733 221.665 153.733 221.665C153.772 221.717 153.801 221.781 153.822 221.851Z" fill="#D35C2B"/>
<path d="M161.983 231.481C161.983 231.481 165.561 228.818 165.943 227.937C166.325 227.056 167.967 223.829 168.392 223.499C168.392 223.499 169.281 223.388 169.409 223.986C169.536 224.581 168.562 228.122 167.883 229.19C167.203 230.259 163.95 233.881 162.881 234.408L161.983 231.481Z" fill="#FFB27D"/>
<path d="M170.678 221.868C170.619 222.178 170.489 222.509 170.336 222.679C170.136 222.909 169.817 223.366 169.616 223.662C169.487 223.845 169.404 223.982 169.404 223.982L168.389 223.502C168.389 223.502 168.366 221.833 169.038 221.48C169.062 221.469 169.073 221.458 169.097 221.458C169.381 221.308 169.652 221.206 169.888 221.138C170.207 221.058 170.454 221.045 170.596 221.127C170.726 221.195 170.749 221.526 170.678 221.868Z" fill="#FFB27D"/>
<path d="M159.129 225.516C157.809 225.192 158.313 227.457 157.98 227.302C157.607 227.128 156.965 227.132 157.066 227.569C157.168 228.005 157.314 228.161 157.39 228.433C157.466 228.707 157.389 229.245 157.082 229.136C156.775 229.029 153.919 225.869 155.936 223.41C157.952 220.949 163.965 222.465 162.072 225.039C161.738 225.49 160.069 225.746 159.129 225.516Z" fill="#233862"/>
<path d="M163.921 243.783C163.921 243.783 162.8 244.361 161.035 244.333C159.909 244.317 157.521 243.843 155.986 243.306C155.111 243.001 154.512 242.675 154.584 242.401C154.688 242.007 155.437 238.977 156.13 236.174C156.763 233.611 157.349 231.236 157.349 231.236C157.349 231.236 159.096 232.439 160.115 232.015C161.134 231.59 161.003 231.11 161.003 231.11C161.003 231.11 161.669 230.849 161.981 230.946C162.294 231.042 163.181 230.555 163.181 230.555C163.181 230.555 164.161 231.288 164.198 232.863C164.204 233.096 164.19 233.348 164.147 233.618L163.44 234.408C163.44 234.408 164.94 238.987 163.921 243.783Z" fill="white"/>
<path d="M168.363 258.79H163.449C163.449 258.79 163.355 258.015 163.468 257.354C163.482 257.272 163.525 257.201 163.59 257.135C163.877 257.23 164.3 257.297 164.77 257.133C165.155 257 165.44 256.795 165.639 256.61C165.69 256.658 166.705 257.595 167.174 257.595C167.656 257.595 168.391 257.818 168.363 258.79Z" fill="#AA443E"/>
<path d="M156.231 254.575C155.241 255.584 154.24 256.471 153.87 256.908L152.193 256.127C152.193 256.127 152.782 254.489 153.654 253.005C153.954 253.457 154.741 254.385 156.231 254.575Z" fill="white"/>
<path d="M154.233 256.488C154.233 256.488 154.172 257.52 154.528 257.657C154.883 257.795 155.546 258.133 155.546 258.79H153.085C153.085 258.79 151.387 257.981 151.16 257.637C150.934 257.293 152.292 255.827 152.292 255.827C152.292 255.827 153.126 256.721 154.233 256.488Z" fill="#AA443E"/>
<path d="M158.306 239.695C158.306 239.695 159.384 239.5 159.806 239.768C160.227 240.034 160.352 240.453 160.048 240.625C159.096 241.159 158.132 240.567 158.132 240.567L158.306 239.695Z" fill="#FFB27D"/>
<path d="M157.392 231.564C157.392 231.564 154.073 232.245 152.763 237.243C152.635 237.732 152.768 238.254 153.117 238.628C153.719 239.274 155.045 240.219 158.132 240.567C158.469 240.606 158.514 239.777 158.514 239.777C158.481 239.844 156.418 238.487 155.539 237.758C155.381 237.625 155.388 237.349 155.502 237.179C155.799 236.74 156.297 235.984 156.464 235.593C156.708 235.027 158.32 231.821 157.392 231.564Z" fill="#FFB27D"/>
<path d="M157.349 231.236C157.349 231.236 155.397 231.371 153.806 233.425C153.806 233.425 154.345 235.317 156.873 235.822C156.873 235.822 158.431 232.417 157.349 231.236Z" fill="white"/>
<path d="M183.962 182.406C183.962 182.406 180.48 181.998 178.729 185.137C176.978 188.275 177.119 192.822 175.421 194.967C173.724 197.112 175.706 199.145 175.706 199.145L188.932 199.578C188.932 199.578 189.851 197.18 188.932 194.302C188.013 191.426 192.503 182.843 183.962 182.406Z" fill="#163560"/>
<path d="M195.161 220.503C195.025 221.003 194.582 222.133 194.238 222.133C193.957 222.133 193.856 220.749 193.495 220.455C192.972 220.029 192.545 219.135 192.476 218.917C192.337 218.471 192.205 218.379 192.205 218.379L192.207 218.377H192.205C192.205 218.377 188.022 210.972 187.696 209.077C187.589 208.46 187.313 207.221 186.992 205.835C186.643 204.327 186.238 202.643 185.932 201.381C187.268 201.129 188.743 201.04 189.949 201.018C190.193 202.552 190.413 204.12 190.602 205.482C190.883 207.508 191.097 209.081 191.229 209.418C191.592 210.344 192.593 215.327 193.539 217.914C193.648 218.17 193.954 218.832 194.29 219.058C194.71 219.339 195.295 220.002 195.161 220.503Z" fill="#E8945B"/>
<path d="M187.58 213.193C185.271 206.041 189.919 206.135 189.678 202.556C189.438 198.977 186.577 195.129 186.577 195.129C186.577 195.129 186.476 195.118 186.297 195.104C186.199 195.095 186.113 195.031 186.081 194.942C185.974 194.659 185.943 194.041 185.945 193.395C185.947 192.411 186.025 191.366 186.025 191.366L182.594 190.707L182.389 190.668C182.395 192.339 182.068 193.596 181.715 194.298C181.546 194.632 181.219 194.859 180.839 194.911C180.102 195.011 178.804 195.226 177.931 195.579C177.505 195.751 177.182 195.955 177.069 196.195C176.127 198.203 175.185 203.267 174.524 206.879C174.155 208.892 173.875 210.456 173.729 210.785C173.319 211.711 172.069 216.794 171.002 219.302L172.366 219.698C172.366 219.698 176.865 212.469 177.274 210.587C177.407 209.975 177.734 208.75 178.117 207.377C178.174 207.17 178.233 206.959 178.292 206.746C178.966 208.516 179.31 209.334 179.291 210.101C179.265 211.189 178.502 212.168 176.909 215.627C176.03 217.538 189.938 220.497 187.58 213.193Z" fill="#FFB27D"/>
<path d="M186.026 191.366C186.026 191.366 185.947 192.411 185.945 193.395C184.025 193.344 183.011 191.647 182.594 190.707L186.026 191.366Z" fill="#E8945B"/>
<path d="M186.665 192.298C186.665 192.298 182.123 192.37 182.12 189.629C182.118 186.889 181.529 185.053 184.428 184.89C187.328 184.727 187.894 185.773 188.125 186.687C188.354 187.603 187.848 192.207 186.665 192.298Z" fill="#FFB27D"/>
<path d="M193.005 256.168L191.548 256.516C191.548 256.516 189.255 253.475 187.35 249.328C186.142 246.698 185.091 243.698 184.879 240.91C184.784 239.647 184.86 238.428 185.169 237.307C185.169 237.307 184.763 234.655 184.205 231.114C183.587 227.178 182.785 222.146 182.156 218.447L182.535 218.338L188.737 214.825C188.737 214.825 191.588 221.116 190.86 230.576C190.709 232.517 191.137 235.519 190.758 237.726C190.113 241.496 190.379 245.288 190.914 248.443C191.681 252.955 193.005 256.168 193.005 256.168Z" fill="#FFB27D"/>
<path d="M178.023 206.033C178.875 208.311 179.313 209.238 179.291 210.101C182.005 206.031 186.906 205.417 186.906 205.417L177.599 204.386C177.685 204.945 177.822 205.497 178.023 206.033Z" fill="#CB7D45"/>
<path d="M187.99 185.164C187.289 184.34 186.76 184.52 186.462 184.768C184.025 183.46 182.376 185.401 182.376 185.401C182.073 187.368 180.609 188.494 180.609 188.494C180.609 188.494 181.417 188.91 183.345 188.514C185.634 188.044 186.263 185.545 186.355 185.222C186.631 185.462 187.178 185.986 187.346 186.5C187.572 187.198 187.673 188.634 188.107 188.586C188.107 188.586 189.043 186.4 187.99 185.164Z" fill="#163560"/>
<path d="M171.099 219.081C171.099 219.081 170.684 220.029 170.252 220.292C169.821 220.557 169.207 221.195 169.321 221.7C169.434 222.207 169.548 222.999 170.093 222.999C170.639 222.999 171.911 220.667 172.07 220.227C172.229 219.787 172.366 219.698 172.366 219.698L171.099 219.081Z" fill="#FFB27D"/>
<path d="M192.503 239.881C187.019 242.917 172.578 238.084 172.593 237.804C172.669 236.318 174.056 227.374 175.686 218.839C176.687 213.589 179.355 211.63 178.929 211.298L178.923 211.293C177.278 210.162 177.989 208.222 178.098 207.526C177.593 207.658 175.963 207.956 174.098 206.96C174.867 203.322 175.961 198.222 177.058 196.201C177.11 196.103 177.202 196.012 177.328 195.925L177.316 195.914C178.344 195.189 180.442 194.967 180.442 194.967C180.442 194.967 181.574 197.648 181.919 198.066C184.157 200.776 188.179 199.552 187.631 197.866C187.434 197.252 186.417 195.318 186.295 195.102L186.58 195.128C187.254 195.215 187.732 195.281 188.076 195.338C188.75 195.45 188.916 195.528 189.085 195.653C189.677 196.225 190.447 197.65 190.508 200.193C190.533 201.138 191.548 211.576 188.259 211.394C188.185 211.39 188.249 211.561 188.391 211.885C188.855 212.918 190.174 215.512 190.556 218.839C191.798 229.664 192.503 239.881 192.503 239.881Z" fill="white"/>
<path d="M185.361 190.678C185.361 190.678 185.446 191.017 186.316 190.954C186.316 190.954 187.044 190.902 187.017 190.531C187.017 190.531 186.307 190.275 185.361 190.678Z" fill="white"/>
<path d="M172.07 220.227C172.07 220.227 171.921 221.291 171.631 221.537C171.341 221.783 171.299 222.226 171.002 221.987C170.705 221.75 172.07 220.227 172.07 220.227Z" fill="#FFB27D"/>
<path d="M190.356 258.004C190.358 258.803 191.514 258.891 192.838 258.834C194.162 258.779 193.787 259.077 195.626 259.228C197.462 259.382 198.138 258.836 198.247 258.588C198.343 258.368 197.471 258.116 196.541 257.828C196.422 257.793 196.306 257.754 196.189 257.717C195.14 257.38 194.491 256.556 193.627 255.816C192.807 255.116 191.863 252.722 191.863 252.722L189.36 252.437C189.36 252.437 190.264 254.587 190.595 255.511C190.79 256.054 190.642 256.695 190.503 257.184C190.43 257.45 190.354 257.722 190.356 258.004Z" fill="#FFB27D"/>
<path d="M192.838 258.834C194.162 258.779 193.787 259.077 195.626 259.228C197.462 259.382 198.138 258.836 198.247 258.588C198.343 258.368 197.471 258.116 196.541 257.828L196.528 257.844C196.528 257.844 195.299 258.377 193.795 258.124C192.57 257.918 191.347 257.332 190.503 257.184C190.43 257.45 190.354 257.722 190.356 258.004C190.358 258.803 191.514 258.891 192.838 258.834Z" fill="#1C468A"/>
<path d="M192.503 239.881C187.019 242.917 172.578 238.084 172.593 237.804C172.669 236.318 174.056 227.374 175.686 218.839C176.687 213.589 179.355 211.63 178.929 211.298C179.03 211.378 180.578 212.586 183.415 212.423C185.955 212.275 187.911 211.966 188.391 211.885C188.855 212.918 190.174 215.512 190.556 218.839C191.798 229.664 192.503 239.881 192.503 239.881Z" fill="#2B478B"/>
<path d="M178.923 211.293C178.923 211.293 183.413 213.108 188.259 211.394L188.506 212.131C188.506 212.131 183.52 213.807 178.728 211.9L178.923 211.293Z" fill="#2B478B"/>
<path d="M568.922 260.252H1.21571C0.861086 260.252 0.571045 259.971 0.571045 259.626V259.413C0.571045 259.071 0.861086 258.79 1.21571 258.79H568.922C569.278 258.79 569.567 259.071 569.567 259.413V259.626C569.567 259.971 569.278 260.252 568.922 260.252Z" fill="#2E3552"/>
<path d="M376.908 259.31H372.043C372.08 259.063 372.203 258.311 372.431 257.618C372.51 257.378 372.603 257.143 372.709 256.939C373.181 256.025 376.187 256.606 376.187 256.606C376.187 256.606 376.465 256.839 376.683 257.724C376.777 258.112 376.864 258.63 376.908 259.31Z" fill="#233862"/>
<path d="M367.975 187.34C367.975 187.34 364.1 187.999 363.224 190.216C362.346 192.432 357.395 228.229 357.395 228.229C357.395 228.229 359.847 230.11 365.109 229.434C370.374 228.759 367.975 187.34 367.975 187.34Z" fill="#9DB0F4"/>
<path d="M362.206 257.824C362.192 258.464 362.11 259.071 361.871 259.31H352.247C352.37 258.973 352.718 258.466 353.704 258.311C354.827 258.135 356.577 257.611 357.597 256.565C357.963 256.193 358.233 255.755 358.352 255.242C358.804 253.29 362.096 255.84 362.096 255.84C362.096 255.84 362.229 256.869 362.206 257.824Z" fill="#233862"/>
<path d="M358.062 256.875C359.139 257.206 361.193 258.22 362.498 257.743C363.343 257.435 368.059 244.222 368.364 238.443C368.388 238.022 368.472 237.436 368.606 236.722C368.885 235.23 369.374 233.18 369.935 230.919C371.447 224.858 373.489 217.276 373.443 214.854C373.376 211.093 361.872 214.065 361.872 214.065C361.872 214.065 361.08 217.15 360.922 221.617C360.61 230.484 359.751 245.458 357.414 255.859C357.316 256.301 357.616 256.738 358.062 256.875Z" fill="#233862"/>
<path d="M366.046 214.866L372.126 257.556C372.126 257.556 374.798 258.18 376.875 257.681C376.875 257.681 378.657 234.977 378.509 229.488C378.36 223.999 379.786 214.8 378.182 213.786C376.58 212.771 366.046 214.866 366.046 214.866Z" fill="#2B478B"/>
<path d="M378.951 189.297C378.951 189.297 372.561 185.294 367.975 187.34C367.246 187.666 366.414 188.577 365.817 189.213C364.158 190.982 360.92 219.072 360.92 219.072C360.92 219.072 370.111 222.087 378.951 218.049V189.297Z" fill="white"/>
<path d="M367.615 187.238C367.615 187.238 361.144 189.807 360.267 191.779C359.39 193.752 356.543 205.87 356.543 207.291C356.543 208.712 361.501 207.61 362.3 205.317C362.964 203.414 365.199 197.568 366.379 193.871L367.615 187.238Z" fill="#9DB0F4"/>
<path d="M368.956 189.197C370.368 189.465 372.444 189.178 373.962 188.208C373.275 186.623 372.994 185.37 372.896 184.559C372.891 184.515 372.886 184.474 372.881 184.433C372.836 184.013 372.843 183.728 372.865 183.597H369.211C369.211 183.597 368.214 184.039 368.214 184.344C368.214 184.509 368.211 184.665 368.209 184.815C368.202 185.22 368.185 185.575 368.164 185.88C368.094 186.872 367.976 187.34 367.976 187.34C367.976 187.34 367.529 188.925 368.956 189.197Z" fill="#FFB27D"/>
<path d="M368.162 185.88C370.927 186.399 372.533 184.935 372.894 184.559C372.947 184.506 372.971 184.473 372.971 184.473C372.942 184.459 372.911 184.447 372.88 184.434C371.85 184.03 369.514 184.35 368.207 184.815C368.201 185.22 368.184 185.575 368.162 185.88Z" fill="#E2915A"/>
<path d="M373.801 183.015C373.306 185.593 369.872 185.508 368.388 185.346C367.971 185.301 367.708 185.249 367.708 185.249C367.24 185.127 366.975 184.409 366.852 183.469C366.61 181.607 366.917 178.874 367.24 178.174C367.73 177.123 368.651 175.985 372.108 176.807C375.566 177.629 374.435 179.714 373.801 183.015Z" fill="#FFB27D"/>
<path d="M367.111 176.739C367.584 176.104 368.585 175.331 369.496 174.853C371.45 173.83 373.954 174.886 373.964 174.89C376.788 176.093 377.525 178.186 376.026 181.445C374.444 184.892 372.936 184.504 372.936 184.504C372.936 184.504 373.256 184.312 373.227 183.237C373.225 183.175 373.225 183.125 373.222 183.081C373.205 182.861 373.287 182.641 373.457 182.492C373.806 182.191 373.978 181.273 373.685 181.017C373.331 180.71 372.832 181.084 372.675 181.37C372.534 181.574 372.286 181.647 372.054 181.504C371.174 180.966 371.743 179.891 370.905 179.232C370.064 178.573 368.36 179.126 367.101 178.601C365.453 178.005 366.755 177.216 367.111 176.739Z" fill="#233862"/>
<path d="M366.719 230.859C367.277 230.998 367.827 231.111 368.374 231.199C368.858 231.279 369.34 231.339 369.824 231.377C372.559 231.609 375.306 231.234 378.518 230.343C379.239 230.143 379.987 229.915 380.762 229.662C380.845 229.636 380.552 221.412 380.212 212.929C380.178 212.053 380.141 211.174 380.107 210.301C380.092 209.93 380.078 209.562 380.061 209.196C379.755 201.694 379.449 194.917 379.386 194.552C379.239 193.727 379.103 193.024 378.951 192.413C378.513 190.637 377.971 189.661 376.788 188.823C376.673 188.738 375.724 188.275 374.888 187.874C374.196 187.541 373.583 187.25 373.583 187.25H373.581C373.304 187.379 372.975 187.992 372.63 188.848C371.992 190.431 371.307 192.853 370.828 194.661L370.826 194.671C370.518 195.838 370.298 196.749 370.234 197.009C370.127 197.45 369.987 198.303 369.821 199.46C369.597 201.033 369.33 203.171 369.044 205.595C369.015 205.843 368.985 206.097 368.956 206.35C368.922 206.64 368.887 206.934 368.856 207.232C368.844 207.327 368.831 207.423 368.821 207.519C368.714 208.478 368.601 209.47 368.494 210.477C368.401 211.309 367.099 211.911 367.01 212.758C366.957 213.254 366.849 217.842 366.71 219.307C366.607 220.352 366.681 230.367 366.719 230.859Z" fill="#AEC3FF"/>
<path d="M376.151 197.578C376.156 197.595 376.373 205.164 370.493 206.084C364.615 207.003 368.52 207.246 368.52 207.246C368.52 207.246 379.582 206.79 379.765 206.507C379.948 206.224 376.151 197.578 376.151 197.578Z" fill="#9DB0F4"/>
<path d="M371.184 209.333C371.184 209.333 371.295 209.409 371.505 209.54L371.515 209.548C372.414 210.101 375.076 211.613 378.952 212.627C379.359 212.734 379.777 212.835 380.213 212.929C380.176 212.054 380.142 211.174 380.107 210.301C380.62 210.262 381.109 210.199 381.565 210.105C381.55 209.99 381.533 209.875 381.516 209.759C381.023 209.565 380.534 209.375 380.061 209.196C379.677 209.05 379.304 208.911 378.952 208.783C377.36 208.197 376.178 207.801 376.178 207.801L371.466 209.246L371.184 209.333Z" fill="#9DB0F4"/>
<path d="M369.936 209.207C369.936 209.207 370.541 209.354 371.506 209.54L371.515 209.542C373.294 209.888 376.282 210.375 378.95 210.347C379.344 210.344 379.731 210.329 380.107 210.301C380.619 210.262 381.107 210.2 381.564 210.105C382.54 209.907 383.358 209.568 383.893 209.041C387.863 205.123 381.726 191.064 380.432 189.697C378.928 188.1 376.177 187.539 374.66 187.347C374.595 187.339 374.535 187.331 374.476 187.324C373.943 187.263 373.597 187.25 373.58 187.25C373.58 187.25 373.697 187.621 373.899 188.249C373.976 188.492 374.065 188.775 374.165 189.09C375.097 192.047 376.896 197.861 377.689 201.139C377.98 202.34 378.135 203.199 378.065 203.456C377.754 204.575 374.545 205.151 372.515 205.406C371.667 205.512 371.023 205.562 370.879 205.573L370.849 205.575L370.732 206.041L370.448 207.163L370.175 208.262L369.936 209.207Z" fill="#AEC3FF"/>
<path d="M358.86 215.945L372.498 215.388L369.732 198.929L356.094 199.486L358.86 215.945Z" fill="#163560"/>
<path d="M370.848 205.575C370.848 205.575 368.196 205.395 368.062 205.994C367.753 207.391 370.344 208.539 371.183 208.461C372.024 208.382 371.46 205.482 370.848 205.575Z" fill="#FFB27D"/>
<path d="M356.84 202.828C356.84 202.828 359.38 202.058 359.654 202.612C360.289 203.902 358.04 205.598 357.206 205.709C356.369 205.822 356.225 202.874 356.84 202.828Z" fill="#FFB27D"/>
<path d="M373.305 186.423C373.305 186.423 374.565 186.634 375.124 187.413C375.124 187.413 370.807 194.735 370.826 194.671C370.842 194.604 372.238 187.323 373.305 186.423Z" fill="#9DB0F4"/>
<path d="M368.105 186.523C367.736 186.656 367.031 187.356 366.872 187.742L366.376 193.871C366.376 193.871 367.435 189.375 367.975 187.341C368.112 186.824 368.087 186.667 368.105 186.523Z" fill="#9DB0F4"/>
<path d="M365.21 199.114C365.21 199.114 365.102 198.657 364.482 198.709C363.862 198.762 360.375 198.929 360.375 198.929C360.375 198.929 359.701 198.918 359.764 199.336L365.21 199.114Z" fill="#17467F"/>
<path d="M248.194 142.54H254.834V144.007H250.086V145.647H252.366C253.361 145.647 254.117 145.847 254.634 146.25C255.159 146.652 255.422 147.233 255.422 147.991C255.422 148.788 255.132 149.406 254.552 149.846C253.972 150.286 253.153 150.506 252.095 150.506H248.194V142.54ZM251.99 149.14C252.476 149.14 252.848 149.049 253.106 148.867C253.365 148.678 253.494 148.405 253.494 148.048C253.494 147.35 252.993 147.001 251.99 147.001H250.086V149.14H251.99Z" fill="white"/>
<path d="M260.795 150.642C259.941 150.642 259.169 150.465 258.48 150.108C257.798 149.751 257.262 149.262 256.87 148.639C256.486 148.01 256.294 147.304 256.294 146.523C256.294 145.741 256.486 145.039 256.87 144.417C257.262 143.787 257.798 143.294 258.48 142.937C259.169 142.581 259.941 142.403 260.795 142.403C261.649 142.403 262.416 142.581 263.098 142.937C263.78 143.294 264.316 143.787 264.708 144.417C265.1 145.039 265.295 145.741 265.295 146.523C265.295 147.304 265.1 148.01 264.708 148.639C264.316 149.262 263.78 149.751 263.098 150.108C262.416 150.465 261.649 150.642 260.795 150.642ZM260.795 149.072C261.28 149.072 261.719 148.966 262.111 148.753C262.503 148.533 262.808 148.23 263.028 147.843C263.255 147.456 263.368 147.016 263.368 146.523C263.368 146.029 263.255 145.589 263.028 145.203C262.808 144.816 262.503 144.516 262.111 144.303C261.719 144.083 261.28 143.973 260.795 143.973C260.309 143.973 259.871 144.083 259.478 144.303C259.087 144.516 258.778 144.816 258.55 145.203C258.331 145.589 258.221 146.029 258.221 146.523C258.221 147.016 258.331 147.456 258.55 147.843C258.778 148.23 259.087 148.533 259.478 148.753C259.871 148.966 260.309 149.072 260.795 149.072Z" fill="white"/>
<path d="M273.866 142.54V150.506H271.985V144.042H269.165L269.106 145.703C269.067 146.834 268.973 147.752 268.824 148.458C268.675 149.156 268.425 149.694 268.072 150.074C267.727 150.446 267.241 150.632 266.615 150.632C266.356 150.632 266.043 150.589 265.675 150.506L265.792 148.947C265.894 148.977 266.008 148.993 266.133 148.993C266.588 148.993 266.904 148.735 267.085 148.219C267.265 147.695 267.379 146.88 267.425 145.772L267.543 142.54H273.866Z" fill="white"/>
<path d="M279.904 145.157C280.906 145.157 281.674 145.373 282.207 145.806C282.747 146.238 283.018 146.88 283.018 147.729C283.018 148.632 282.72 149.322 282.125 149.801C281.537 150.271 280.707 150.506 279.633 150.506H275.92V142.54H277.812V145.157H279.904ZM279.528 149.14C280.022 149.14 280.405 149.023 280.679 148.788C280.961 148.553 281.103 148.211 281.103 147.763C281.103 146.936 280.578 146.523 279.528 146.523H277.812V149.14H279.528Z" fill="white"/>
<path d="M291.934 142.54V150.506H290.03V147.24H286.294V150.506H284.39V142.54H286.294V145.68H290.03V142.54H291.934Z" fill="white"/>
<path d="M293.995 142.54H295.887V147.729L299.812 142.54H301.598V150.506H299.718V145.328L295.793 150.506H293.995V142.54Z" fill="white"/>
<path d="M312.271 149.004V152.191H310.52V150.506H303.646V142.54H305.538V149.004H309.204V142.54H311.096V149.004H312.271Z" fill="white"/>
<path d="M319.166 148.799H315.346L314.618 150.506H312.667L316.333 142.54H318.213L321.892 150.506H319.894L319.166 148.799ZM318.566 147.399L317.262 144.349L315.957 147.399H318.566Z" fill="white"/>
</svg>
