<svg width="800" height="400" viewBox="0 0 800 400" fill="none" xmlns="http://www.w3.org/2000/svg">
<mask id="mask0_0_940" style="mask-type:luminance" maskUnits="userSpaceOnUse" x="0" y="0" width="800" height="400">
<path d="M800 0H0V400H800V0Z" fill="white"/>
</mask>
<g mask="url(#mask0_0_940)">
<path d="M99.6927 139.11C137.576 125.132 150.79 -70.5588 319.057 27.2854C355.292 48.3552 400.159 44.2101 448.332 40.0655C489.127 36.5549 532.296 33.0449 574.608 44.8463C659.349 68.4831 661.301 136.666 650.587 161.212C638.878 188.033 685.563 220.1 733.378 242.12C808.382 276.668 753.231 398.075 682.372 398.657C611.518 399.235 90.9568 397.502 90.9568 397.502C90.9568 397.502 -50.7009 194.603 99.6927 139.11Z" fill="#D3E4FE"/>
<path d="M501.245 204.336H659.115V84.9289H501.245V204.336Z" fill="#B2CBFD"/>
<path d="M506.711 198.128H653.65V91.1343H506.711V198.128Z" fill="white"/>
<path d="M659.065 204.336H660.112V84.9285H659.065V204.336Z" fill="#466AA5"/>
<path d="M590.476 128.016C594.094 125.157 599.26 126.887 600.717 131.443C600.927 132.087 601.129 132.77 601.325 133.49C601.382 133.701 601.629 133.77 601.777 133.62L601.822 133.576C602.869 132.553 603.476 131.117 603.476 129.6L602.159 116.854C602.003 115.376 603.083 114.083 604.47 114.083H607.316C608.703 114.083 609.78 115.375 609.628 116.853L608.306 129.678C608.306 131.213 608.917 132.68 609.997 133.689L610.018 133.707C610.169 133.85 610.404 133.774 610.465 133.566C610.666 132.818 610.876 132.11 611.089 131.443C612.552 126.887 617.712 125.157 621.326 128.016C636.087 139.691 635.701 158.481 633.96 169.259C633.25 173.685 628.943 176.306 625.033 174.703L615.462 170.778C613.577 170.005 612.116 168.358 611.504 166.298C608.712 156.964 608.289 148.886 608.897 142.351C609.004 141.2 608.703 140.048 608.071 139.111V139.106C606.93 137.414 606.088 136.972 605.772 136.98C605.394 136.987 604.474 137.696 603.366 140.13C603.005 140.923 602.869 141.81 602.943 142.689C603.506 149.169 603.046 157.132 600.303 166.309C599.687 168.366 598.229 170.007 596.349 170.778L586.777 174.703C582.869 176.304 578.56 173.689 577.847 169.268C576.106 158.491 575.72 139.694 590.476 128.016Z" fill="#D6716B"/>
<path d="M519.159 149.705H549.134C549.946 149.705 550.609 150.418 550.609 151.289C550.609 152.16 549.946 152.872 549.134 152.872H519.159C518.349 152.872 517.683 152.16 517.683 151.289C517.683 150.418 518.349 149.705 519.159 149.705Z" fill="#D6716B"/>
<path d="M519.159 156.262H549.134C549.946 156.262 550.609 156.975 550.609 157.846C550.609 158.717 549.946 159.429 549.134 159.429H519.159C518.349 159.429 517.683 158.717 517.683 157.846C517.683 156.975 518.349 156.262 519.159 156.262Z" fill="#D6716B"/>
<path d="M519.159 163.551H549.134C549.946 163.551 550.609 164.263 550.609 165.134C550.609 166.005 549.946 166.718 549.134 166.718H519.159C518.349 166.718 517.683 166.005 517.683 165.134C517.683 164.263 518.349 163.551 519.159 163.551Z" fill="#D6716B"/>
<path d="M519.159 170.84H549.134C549.946 170.84 550.609 171.552 550.609 172.423C550.609 173.294 549.946 174.007 549.134 174.007H519.159C518.349 174.007 517.683 173.294 517.683 172.423C517.683 171.552 518.349 170.84 519.159 170.84Z" fill="#D6716B"/>
<path d="M519.159 115.255H549.134C549.946 115.255 550.609 115.97 550.609 116.838C550.609 117.71 549.946 118.424 549.134 118.424H519.159C518.349 118.424 517.683 117.71 517.683 116.838C517.683 115.97 518.349 115.255 519.159 115.255Z" fill="#D6716B"/>
<path d="M519.159 121.812H549.134C549.946 121.812 550.609 122.525 550.609 123.396C550.609 124.267 549.946 124.98 549.134 124.98H519.159C518.349 124.98 517.683 124.267 517.683 123.396C517.683 122.525 518.349 121.812 519.159 121.812Z" fill="#D6716B"/>
<path d="M519.159 129.101H549.134C549.946 129.101 550.609 129.814 550.609 130.685C550.609 131.556 549.946 132.268 549.134 132.268H519.159C518.349 132.268 517.683 131.556 517.683 130.685C517.683 129.814 518.349 129.101 519.159 129.101Z" fill="#D6716B"/>
<path d="M519.159 136.39H549.134C549.946 136.39 550.609 137.103 550.609 137.974C550.609 138.845 549.946 139.558 549.134 139.558H519.159C518.349 139.558 517.683 138.845 517.683 137.974C517.683 137.103 518.349 136.39 519.159 136.39Z" fill="#D6716B"/>
<path d="M556.685 127.961H564.093C565.315 127.961 566.315 126.89 566.315 125.581V117.635C566.315 116.326 565.315 115.255 564.093 115.255H556.685C555.465 115.255 554.464 116.326 554.464 117.635V125.581C554.464 126.89 555.465 127.961 556.685 127.961Z" fill="#D6716B"/>
<path d="M556.685 162.411H564.093C565.315 162.411 566.315 161.341 566.315 160.031V152.086C566.315 150.777 565.315 149.705 564.093 149.705H556.685C555.465 149.705 554.464 150.777 554.464 152.086V160.031C554.464 161.341 555.465 162.411 556.685 162.411Z" fill="#D6716B"/>
<path d="M563.924 155.517L561.748 160.639L556.475 151.706L562.099 156.78L563.924 155.517Z" fill="white"/>
<path d="M563.924 120.953L561.748 126.075L556.475 117.142L562.099 122.215L563.924 120.953Z" fill="white"/>
<path d="M527.228 97.5518H633.135C633.848 97.5518 634.422 96.9342 634.422 96.1725C634.422 95.4108 633.848 94.7932 633.135 94.7932H527.228C526.516 94.7932 525.943 95.4108 525.943 96.1725C525.943 96.9342 526.516 97.5518 527.228 97.5518Z" fill="#D6716B"/>
<path d="M452.172 70.4655V398.156H276.731V70.4655H452.172Z" fill="#DEEDFF"/>
<path d="M439.639 84.4446V398.156H289.267V84.4446H439.639Z" fill="#B2CBFD"/>
<path d="M508.036 335.496H724.899C726.355 335.496 727.547 334.221 727.547 332.659V249.178H520.124C512.02 249.178 505.394 256.287 505.394 264.979V332.659C505.394 334.221 506.578 335.496 508.036 335.496Z" fill="#A8D29F"/>
<path d="M492.856 330.156H712.716C720.703 330.156 727.24 337.166 727.24 345.73V382.031C727.24 390.601 720.703 397.607 712.716 397.607H492.856C484.864 397.607 478.332 390.601 478.332 382.031V345.73C478.332 337.166 484.864 330.156 492.856 330.156Z" fill="#A8D29F"/>
<path d="M697.164 331.387H714.2V261.69C714.2 254.807 719.451 249.178 725.865 249.178H727.48C727.873 249.178 728.195 249.522 728.195 249.943V332.586V348.349V396.41C728.195 397.069 727.691 397.607 727.079 397.607H677.766C677.153 397.607 676.654 397.069 676.654 396.41V353.384C676.654 341.286 685.884 331.387 697.164 331.387Z" fill="#66A357"/>
<path d="M676.761 249.768C676.761 249.768 693.017 248.093 698.654 258.13C704.29 268.161 698.653 305.907 703.424 312.595C708.19 319.283 713.827 323.346 713.611 331.229L678.648 331.629C678.648 331.629 647.906 332.815 648.13 350.381C648.354 367.944 648.13 398.325 648.13 398.325H630.536C630.536 398.325 629.743 320.358 647.553 315.777C686.604 305.737 676.761 249.768 676.761 249.768Z" fill="#82B378"/>
<path d="M504.434 327.379L505.39 327.416V262.156C505.39 254.997 510.8 249.19 517.478 249.19H554.776C554.776 249.19 562.456 276.437 563.459 285.638C564.465 294.838 593.865 295.19 597.875 306.515C601.88 317.838 602.552 330.577 602.552 330.577H587.628C587.628 330.577 587.043 330.788 586.048 331.252C580.171 333.986 559.944 345.58 560.233 375.357V397.391H486.396C486.396 397.391 474.702 332.707 504.434 327.379Z" fill="#82B378"/>
<path d="M630.624 299.433C630.624 299.433 627.554 298.43 626.476 299.024C625.404 299.619 622.513 301.476 622.759 302.889C623.009 304.3 628.119 305.174 631.19 302.977C634.261 300.786 630.624 299.433 630.624 299.433Z" fill="#FFB27D"/>
<path d="M640.855 393.13C640.855 394.056 640.429 394.693 639.706 395.121L639.697 395.126C638.357 395.917 636.219 395.309 633.66 395.189C633.336 395.177 629.938 396.733 625.129 397.177C619.645 397.678 617.627 395.878 617.304 395.062C617.032 394.364 619.385 393.578 622.01 392.677C622.139 392.633 622.266 392.588 622.395 392.545C622.746 392.427 623.098 392.303 623.445 392.179C626.576 391.065 629.656 389.742 630.425 386.345C631.241 382.741 628.792 372.687 628.792 372.687L637.476 371.681C637.476 371.681 638.316 382.192 638.861 385.466C639.155 387.215 639.896 388.606 640.33 390.104C640.354 390.21 640.383 390.315 640.413 390.42C640.636 391.3 640.859 392.198 640.855 393.13Z" fill="#D38957"/>
<path d="M640.855 393.13C640.855 394.056 640.429 394.694 639.706 395.121L639.697 395.128C637.753 396.464 634.308 394.603 628.697 397.377C628.457 397.499 626.572 397.36 625.261 397.341C623.56 397.313 621.104 397.48 620.526 397.377C617.879 396.923 617.487 395.519 617.304 395.062C617.032 394.366 619.385 393.579 622.01 392.677C622.75 392.984 626.265 394.291 630.425 393.446C634.082 392.709 637.716 390.758 640.33 390.104C640.354 390.21 640.383 390.315 640.413 390.42C640.636 391.3 640.859 392.198 640.855 393.13Z" fill="#2F5791"/>
<path d="M639.98 394.769L638.699 397.335H635.915V395.455L639.98 394.769Z" fill="#2F5791"/>
<path d="M685.744 303.525L657.62 300.648C657.62 300.648 614.578 300.86 610.572 306.953C610.572 306.953 602.884 312.666 611.572 336.28C620.259 359.889 630.461 383.491 630.461 383.491C630.461 383.491 633.059 384.253 636.622 383.955C638.029 383.838 639.926 383.32 639.926 383.32C639.926 383.32 637.967 348.083 633.623 334.375C629.279 320.665 627.943 323.33 635.627 324.091C643.31 324.853 668.036 330.947 679.396 329.424C690.754 327.9 685.744 303.525 685.744 303.525Z" fill="#2C3A64"/>
<path d="M646.275 393.13C646.271 394.056 645.846 394.693 645.125 395.121L645.112 395.128C643.775 395.917 641.578 394.186 631.573 396.725C626.22 398.085 623.045 395.88 622.724 395.062C622.452 394.366 624.799 393.579 627.429 392.678C627.559 392.635 627.684 392.588 627.813 392.545C628.163 392.427 628.517 392.303 628.868 392.18C631.994 391.065 635.075 389.743 635.846 386.345C636.659 382.741 634.208 372.688 634.208 372.688L642.896 371.681C642.896 371.681 643.732 382.194 644.279 385.466C644.571 387.216 645.313 388.606 645.747 390.105C645.776 390.21 645.805 390.315 645.829 390.42C646.055 391.301 646.275 392.198 646.275 393.13Z" fill="#E49963"/>
<path d="M550.192 393.129C550.189 394.055 549.766 394.693 549.04 395.121L549.028 395.126C547.693 395.917 545.343 395.993 542.783 395.876C542.457 395.861 542.164 395.851 541.899 395.851C541.831 395.851 541.763 395.851 541.696 395.854C541.641 395.854 541.587 395.857 541.538 395.857C539.008 395.922 539.273 396.733 534.465 397.177C528.982 397.678 526.963 395.878 526.638 395.062C526.369 394.364 528.721 393.578 531.348 392.677C531.476 392.633 531.603 392.587 531.731 392.545C532.082 392.427 532.432 392.303 532.783 392.179C535.911 391.063 538.992 389.742 539.762 386.345C540.578 382.741 538.126 372.687 538.126 372.687L546.813 371.681C546.813 371.681 547.651 382.192 548.199 385.466C548.492 387.215 549.233 388.606 549.662 390.105C549.694 390.21 549.724 390.315 549.752 390.42C549.973 391.3 550.195 392.197 550.192 393.129Z" fill="#FFB27D"/>
<path d="M550.192 393.129C550.189 394.055 549.766 394.693 549.04 395.121L549.028 395.126C547.604 395.832 545.292 395.934 542.79 395.857C542.461 395.848 542.168 395.848 541.899 395.851C541.831 395.851 541.763 395.851 541.696 395.854C541.641 395.854 541.587 395.857 541.538 395.857C539.008 395.922 539.273 396.733 534.465 397.177C528.982 397.678 526.963 395.878 526.638 395.062C526.369 394.364 528.721 393.578 531.348 392.677C532.089 392.984 535.6 394.291 539.759 393.446C543.417 392.709 547.054 390.758 549.662 390.105C549.694 390.21 549.724 390.315 549.752 390.42C549.973 391.3 550.195 392.198 550.192 393.129Z" fill="#C65447"/>
<path d="M493.819 381.237C493.339 383.825 489.899 383.392 486.056 382.386C482.215 381.38 483.131 382.575 477.661 381.928C472.194 381.278 470.535 379.091 470.368 378.218C470.22 377.444 472.92 377.171 475.819 376.815C476.182 376.771 476.548 376.722 476.915 376.673C480.186 376.233 482.585 373.97 485.558 372.109C488.372 370.347 492.573 363.173 492.573 363.173L500.071 363.807C500.071 363.807 496.135 370.217 494.614 373.006C493.721 374.644 493.767 376.812 493.878 378.487C493.938 379.395 493.99 380.326 493.819 381.237Z" fill="#FFB27D"/>
<path d="M486.057 382.386C482.214 381.38 483.13 382.575 477.661 381.928C472.191 381.278 470.535 379.091 470.367 378.218C470.222 377.444 472.92 377.171 475.82 376.815L475.846 376.874C475.846 376.874 479.126 379.367 483.676 379.485C487.386 379.581 491.316 378.441 493.878 378.487C493.936 379.395 493.991 380.328 493.819 381.237C493.338 383.825 489.899 383.393 486.057 382.386Z" fill="#C65447"/>
<path d="M510.508 263.111C510.508 263.111 508.724 258.416 506.759 258.224C504.791 258.033 498.538 256.98 498.09 257.937C497.647 258.897 498.09 262.343 499.434 263.59C500.772 264.835 509.082 266.848 509.082 266.848L510.508 263.111Z" fill="#FFB27D"/>
<path d="M522.56 329.812L538.725 376.459C538.725 376.459 541.208 376.715 543.583 375.98C545.777 375.304 548.285 373.524 548.285 373.524C548.285 373.524 544.279 328.737 536.926 319.42C529.577 310.102 522.56 329.812 522.56 329.812Z" fill="#365DA4"/>
<path d="M591.66 308.718C588.348 310.139 584.68 310.281 581.287 309.118C568.866 304.86 537.911 294.837 529.692 297.683C519.334 301.265 488.236 367.618 488.236 367.618C488.236 367.618 488.935 368.618 490.851 369.39C492.634 370.108 496.949 370.061 496.949 370.061C496.949 370.061 525.01 344.262 528.353 336.737C531.697 329.214 533.032 322.048 536.371 322.763C539.713 323.478 579.471 340.321 588.492 330.288C597.511 320.255 595.15 307.219 595.15 307.219L591.66 308.718Z" fill="#466AA5"/>
<path d="M558.104 232.598C557.364 230.953 556.532 228.036 556.129 222.837C556.191 223.354 557.027 229.913 559.378 233.622C569.036 240.425 587.548 263.13 587.18 267.435C587.18 267.435 593.699 255.573 593.813 255.502C593.813 255.502 605.841 239.1 591.586 229.702C584.34 224.927 584.376 218.796 584.682 213.474C584.987 208.147 582.706 185.23 568.192 191.227C568.192 191.227 565.864 190.117 564.82 190.284C564.82 190.284 565.671 190.459 566.107 190.938C564.42 190.831 562.018 190.965 560.006 192.19C554.69 195.431 549.926 224.522 558.104 232.598Z" fill="#B74B42"/>
<path d="M559.95 233.962C559.902 233.984 564.611 236.609 568.159 235.57C571.492 234.594 573.67 229.959 573.625 229.949C572.21 229.646 571.805 227.564 571.834 218.625L571.194 218.762L560.464 221.038C560.464 221.038 560.71 224.661 560.713 228.072C560.725 230.937 560.561 233.656 559.95 233.962Z" fill="#FFB27D"/>
<path d="M560.464 221.039C560.464 221.039 560.708 224.661 560.716 228.074C566.718 227.891 569.897 222.016 571.195 218.763L560.464 221.039Z" fill="#D68D5D"/>
<path d="M572.301 217.509C572.301 217.509 575.448 212.176 576.208 207.616C576.743 204.362 575.197 192.294 563.893 194.031C563.893 194.031 560.608 194.38 557.52 196.614C555.065 198.392 551.522 202.231 555.484 212.762L556.513 216.319L572.301 217.509Z" fill="#B74B42"/>
<path d="M558.461 224.27C558.461 224.27 572.666 224.521 572.678 215.032C572.684 205.541 574.526 199.181 565.455 198.617C556.385 198.056 554.62 201.676 553.897 204.844C553.175 208.008 554.762 223.96 558.461 224.27Z" fill="#FFB27D"/>
<path d="M571.874 200.385C571.874 200.385 562.171 193.271 559.103 198.19C558.171 197.335 556.511 196.715 554.32 199.564C551.027 203.847 553.957 211.414 553.957 211.414C555.312 211.584 555.627 206.607 556.335 204.19C556.87 202.369 558.653 200.508 559.497 199.704C560.74 202.698 564.149 209.872 568.847 211.166C574.818 212.814 577.406 211.098 577.406 211.098C577.406 211.098 572.828 207.197 571.874 200.385Z" fill="#B74B42"/>
<path d="M591.589 274.953C592.986 268.651 588.223 256.423 583.246 246.299C578.73 237.124 574.045 229.681 573.625 229.947C561.715 237.526 560.639 231.225 560.639 231.225C560.639 231.225 549.823 232.767 546.761 238.422C542.525 246.24 537.908 269.704 533.378 269.357C531.297 269.196 510.36 260.756 510.36 260.756C510.36 260.756 506.874 264.261 507.538 268.561C507.538 268.561 517.876 275.986 526.619 280.724C531.242 283.23 535.424 284.982 537.389 284.486C541.372 283.48 547.591 273.578 550.949 267.75L550.972 267.711C555.262 293.754 549.431 299.687 552.386 302.433C555.503 305.335 559.959 301.053 569.758 305.607C576.187 308.598 585.108 312.924 591.115 313.676C594.26 314.072 596.611 313.484 597.381 311.201C599.605 304.573 588.913 286.967 591.589 274.953Z" fill="#699DEE"/>
<path d="M561.617 218.517C561.617 218.517 561.35 219.723 558.555 219.537C558.555 219.537 556.205 219.382 556.279 218.056C556.279 218.056 558.555 217.113 561.617 218.517Z" fill="white"/>
<path d="M597.381 311.201C596.611 313.484 594.259 314.072 591.115 313.676C586.957 311.731 569.001 304.273 569.2 299.219C569.502 291.732 572.655 291.494 570.427 282.257C568.637 274.838 585.229 261.047 587.873 258.049C592.85 268.175 592.986 268.651 591.588 274.953C588.913 286.967 599.605 304.573 597.381 311.201Z" fill="#3B76CA"/>
<path d="M550.949 267.751C547.587 273.578 541.369 283.481 537.385 284.487C535.42 284.983 531.242 283.23 526.619 280.725C529.991 281.657 533.27 281.633 536.456 281.301C539.907 280.945 540.911 276.405 546.369 269.596C549.906 265.181 550.777 266.292 550.949 267.751Z" fill="#3B76CA"/>
<path d="M567.587 282.077C567.587 282.077 564.581 279.569 561.743 280.167C558.902 280.765 557.508 282.855 557.623 283.808C557.73 284.765 559.236 287.453 561.406 287.692C563.578 287.929 569.759 286.257 569.759 286.257L567.587 282.077Z" fill="#FFB27D"/>
<path d="M573.624 229.949C573.624 229.949 585.204 230.714 589.211 236.71C594.852 245.149 608.396 282.693 601.981 287.493C594.758 292.897 566.752 287.332 566.752 287.332C566.752 287.332 565.898 283.053 567.083 280.982C568.275 278.913 587.578 275.57 588.467 274.613C589.357 273.656 577.332 255.978 577.332 253.114C577.332 250.247 573.624 229.949 573.624 229.949Z" fill="#699DEE"/>
<path d="M689.67 305.67L663.296 303.279C663.296 303.279 620.253 303.48 616.248 309.382C616.248 309.382 609.74 313.752 618.428 336.621C627.115 359.488 635.913 384.655 635.913 384.655C635.913 384.655 637.861 384.943 640.219 384.736C643.186 384.479 644.176 383.444 644.176 383.444C644.176 383.444 643.563 352.153 639.217 338.875C634.875 325.595 633.206 326.947 640.887 327.685C648.574 328.425 670.178 334.203 685.069 331.144C696.316 328.837 689.67 305.67 689.67 305.67Z" fill="#35488B"/>
<path d="M622.724 395.062C622.898 395.504 623.269 396.83 625.683 397.332H634.215C637.154 395.898 639.493 395.738 641.331 395.702C642.966 395.678 644.204 395.753 645.112 395.128L645.125 395.121C645.163 395.093 645.209 395.069 645.25 395.04C645.896 394.613 646.271 394 646.275 393.13C646.275 392.201 646.055 391.3 645.829 390.42C645.804 390.315 645.776 390.207 645.747 390.105C643.132 390.755 639.497 392.709 635.842 393.446C631.685 394.291 628.167 392.984 627.429 392.678C624.799 393.579 622.448 394.366 622.724 395.062Z" fill="#365DA4"/>
<path d="M645.4 394.77L644.122 397.338H641.338V395.458L645.4 394.77Z" fill="#365DA4"/>
<path d="M640.325 284.695C642.222 281.812 642.336 245.469 643.45 239.973C644.558 234.481 654.177 231.226 654.177 231.226C654.177 231.226 652.397 249.746 650.311 266.587C648.628 280.21 648.429 293.188 647.131 293.934C644.238 295.605 635.904 302.369 632.135 301.793L629.862 299.622C629.432 299.216 629.532 298.483 630.039 298.205C634.088 295.996 638.916 286.84 640.325 284.695Z" fill="#EE9849"/>
<path d="M653.549 192.188C655.349 190.638 657.962 190.831 659.643 190.938C659.209 190.459 658.357 190.284 658.357 190.284C659.4 190.117 661.73 191.227 661.73 191.227C661.73 191.227 670.549 186.384 674.636 198.805C674.636 198.805 673.931 197.868 672.967 196.803C675.327 203.949 672.94 214.759 665.503 216.681C660.665 217.932 635.097 208.083 653.549 192.188Z" fill="#163560"/>
<path d="M653.489 233.963C653.441 233.984 658.15 236.609 661.696 235.57C665.031 234.594 667.209 229.959 667.162 229.949C665.752 229.646 665.344 227.566 665.374 218.627L664.734 218.762L654.004 221.038C654.004 221.038 654.25 224.661 654.254 228.074C654.262 230.936 654.103 233.656 653.489 233.963Z" fill="#FFB27D"/>
<path d="M654.003 221.039C654.003 221.039 654.247 224.661 654.251 228.074C660.259 227.891 663.436 222.018 664.734 218.763L654.003 221.039Z" fill="#D68D5D"/>
<path d="M665.841 217.509C665.841 217.509 668.987 212.176 669.746 207.615C670.281 204.362 668.736 192.294 657.429 194.031C657.429 194.031 654.145 194.38 651.059 196.614C648.604 198.392 645.064 202.231 649.022 212.762L650.053 216.319L665.841 217.509Z" fill="#163560"/>
<path d="M651.996 224.27C651.996 224.27 666.206 224.521 666.215 215.031C666.224 205.541 668.065 199.181 658.992 198.617C649.922 198.057 648.159 201.676 647.436 204.844C646.713 208.008 648.301 223.962 651.996 224.27Z" fill="#FFB27D"/>
<path d="M648.524 245.287C648.771 244.202 646.645 243.391 646.122 244.355C645.147 246.16 644.954 248.433 644.566 250.247C643.448 255.421 644.566 262.508 644.566 262.508L648.524 245.287Z" fill="#E58638"/>
<path d="M647.86 199.564C650.05 196.715 651.708 197.335 652.642 198.19C655.71 193.271 665.412 200.385 665.412 200.385C666.362 207.197 670.945 211.099 670.945 211.099C670.945 211.099 668.354 212.814 662.384 211.167C657.688 209.872 654.279 202.698 653.034 199.704C652.192 200.509 650.409 202.37 649.873 204.19C649.168 206.609 648.848 211.585 647.497 211.414C647.497 211.414 644.563 203.847 647.86 199.564Z" fill="#163560"/>
<path d="M655.157 218.519C655.157 218.519 654.89 219.723 652.094 219.537C652.094 219.537 649.746 219.382 649.818 218.057C649.818 218.057 652.094 217.113 655.157 218.519Z" fill="white"/>
<path d="M643.953 264.49C643.953 264.49 645.754 292.141 640.475 298.381L651.298 291.057L643.953 264.49Z" fill="#E58638"/>
<path d="M643.694 263.147C649.456 292.915 644.634 297.485 647.629 300.411L650.303 301.666C653.418 304.567 653.498 301.053 663.297 305.607C667.967 307.78 673.952 310.654 679.178 312.358C681.148 312.995 683.006 313.469 684.651 313.676C687.801 314.072 690.15 313.484 690.916 311.203C693.144 304.573 682.454 286.967 685.127 274.953C685.15 274.85 685.168 274.745 685.19 274.643C685.382 273.593 685.422 272.385 685.32 271.063C684.82 264.359 680.873 254.618 676.786 246.299C672.271 237.124 667.583 229.681 667.161 229.947C655.254 237.526 654.18 231.226 654.18 231.226C654.18 231.226 641.734 252.992 643.694 263.147Z" fill="#EE9849"/>
<path d="M649.354 301.246C652.473 304.149 653.498 301.053 663.297 305.607C667.967 307.782 673.952 310.654 679.178 312.358C681.847 312.856 683.839 313.296 684.651 313.676C687.801 314.072 690.149 313.484 690.916 311.203C693.144 304.573 682.453 286.967 685.127 274.953C685.149 274.851 685.167 274.745 685.19 274.643C685.422 273.457 685.452 272.272 685.318 271.064C684.758 265.97 681.264 260.442 677.307 252.396C674.665 255.393 654.786 251.918 659.487 281.539C660.931 290.62 650.589 294.199 649.354 301.246Z" fill="#E58638"/>
<path d="M650.321 302.76C650.321 302.76 645.941 301.646 643.935 302.523C641.929 303.399 637.921 305.629 638.292 306.82C638.662 308.016 643.413 308.654 645.419 307.458C647.425 306.263 648.908 307.777 651.358 306.901C653.81 306.025 650.321 302.76 650.321 302.76Z" fill="#FFB27D"/>
<path d="M667.162 229.947C667.162 229.947 683.318 230.179 686.216 238.542C689.111 246.902 688.22 276.284 683.989 285.124C679.757 293.962 655.698 305.907 653.025 306.385C650.354 306.861 648.683 302.442 648.794 301.966C648.904 301.485 674.075 279.627 673.964 277.358C673.853 275.088 667.162 229.947 667.162 229.947Z" fill="#EE9849"/>
<path d="M235.943 223.735C235.943 223.735 239.242 219.604 236.145 216.982C236.145 216.982 233.884 215.514 232.039 215.631C232.039 215.631 234.652 220.332 233.808 220.8C232.962 221.267 231.247 215.338 231.247 215.338C231.247 215.338 226.099 214.801 224.443 215.656C224.443 215.656 228.845 219.518 227.917 219.746C226.99 219.98 222.237 216.186 222.237 216.186C222.237 216.186 217.446 217.062 217.702 220.195C217.957 223.33 219.608 224.299 220.334 224.214C221.059 224.131 225.303 222.395 225.396 223.032C225.488 223.67 222.932 225.754 221.144 225.85C221.144 225.85 224.522 229.844 226.767 228.692C229.011 227.54 229.204 225.711 230.603 225.027C232.003 224.341 233.196 224.341 232.619 225.042C232.041 225.742 229.508 226.419 228.708 227.94C227.908 229.457 227.19 230.482 229.512 230.108C231.836 229.73 235.61 227.909 235.776 225.821C235.943 223.735 235.943 223.735 235.943 223.735Z" fill="#82B378"/>
<path d="M220.055 220.28C220.055 220.28 233.068 219.743 235.941 223.735C235.941 223.735 236.577 225.775 238.534 227.633L238.838 228.524C238.838 228.524 236.583 225.977 235.776 225.821C235.776 225.821 237.038 220.876 220.055 220.28Z" fill="#82B378"/>
<path d="M238.534 227.633C238.534 227.633 241.326 229.85 241.521 233.807L241.014 233.857C241.014 233.857 240.121 229.764 238.51 228.162C236.897 226.562 238.534 227.633 238.534 227.633Z" fill="#82B378"/>
<path d="M247.482 218.542C247.482 218.542 242.232 215.387 244.682 211.107C244.682 211.107 246.642 208.482 248.741 207.803C248.741 207.803 247.622 214.186 248.741 214.337C249.861 214.486 249.511 207.129 249.511 207.129C249.511 207.129 255.042 204.277 257.211 204.504C257.211 204.504 253.781 210.733 254.902 210.584C256.022 210.433 259.87 204.126 259.87 204.126C259.87 204.126 265.54 203.001 266.452 206.606C267.362 210.206 265.893 212.008 265.052 212.235C264.213 212.461 258.822 212.384 258.96 213.136C259.102 213.885 262.743 215.087 264.772 214.411C264.772 214.411 262.532 220.341 259.592 220.044C256.651 219.743 255.741 217.79 253.921 217.641C252.102 217.489 250.771 218.016 251.682 218.542C252.591 219.065 255.673 218.713 257.141 220.053C258.611 221.394 259.801 222.221 257.073 222.822C254.341 223.423 249.441 223.044 248.461 220.793C247.482 218.542 247.482 218.542 247.482 218.542Z" fill="#A8D29F"/>
<path d="M263.862 207.73C263.862 207.73 249.162 212.836 247.482 218.542C247.482 218.542 247.552 221.094 246.082 224.019V225.147C246.082 225.147 247.622 221.32 248.461 220.793C248.461 220.793 245.171 215.839 263.862 207.73Z" fill="#82B378"/>
<path d="M246.082 224.019C246.082 224.019 243.815 227.713 245.107 232.206L245.69 232.04C245.69 232.04 245.125 227.088 246.311 224.598C247.497 222.109 246.082 224.019 246.082 224.019Z" fill="#82B378"/>
<path d="M239.129 214.191C239.129 214.191 246.048 210.037 242.819 204.395C242.819 204.395 240.236 200.932 237.468 200.041C237.468 200.041 238.944 208.455 237.468 208.65C235.991 208.848 236.452 199.149 236.452 199.149C236.452 199.149 229.163 195.39 226.303 195.687C226.303 195.687 230.824 203.899 229.348 203.701C227.871 203.503 222.796 195.192 222.796 195.192C222.796 195.192 215.322 193.709 214.122 198.459C212.922 203.208 214.861 205.584 215.968 205.881C217.075 206.175 224.181 206.076 223.996 207.068C223.811 208.057 219.013 209.64 216.338 208.748C216.338 208.748 219.289 216.567 223.166 216.171C227.041 215.777 228.241 213.204 230.64 213.006C233.038 212.808 234.792 213.502 233.592 214.191C232.392 214.886 228.332 214.418 226.395 216.186C224.457 217.954 222.889 219.04 226.487 219.833C230.085 220.627 236.545 220.131 237.837 217.162C239.129 214.191 239.129 214.191 239.129 214.191Z" fill="#A8D29F"/>
<path d="M217.536 199.941C217.536 199.941 236.915 206.67 239.129 214.191C239.129 214.191 239.037 217.558 240.975 221.416V222.902C240.975 222.902 238.944 217.855 237.837 217.162C237.837 217.162 242.175 210.631 217.536 199.941Z" fill="#82B378"/>
<path d="M240.975 221.416C240.975 221.416 243.963 226.283 242.26 232.206L241.49 231.986C241.49 231.986 242.237 225.459 240.674 222.18C239.11 218.898 240.975 221.416 240.975 221.416Z" fill="#82B378"/>
<path d="M239.362 245.054C231.875 245.054 225.806 238.545 225.806 230.516H252.918C252.918 238.545 246.848 245.054 239.362 245.054Z" fill="#F1A34F"/>
<path d="M236.027 244.942C236.577 245.016 237.14 245.054 237.711 245.054C245.197 245.054 251.266 238.545 251.266 230.516H247.898C247.898 237.934 242.718 244.053 236.027 244.942Z" fill="#FFB973"/>
<path d="M225.619 245.794H253.106C253.106 244.803 252.357 244.001 251.433 244.001H227.292C226.368 244.001 225.619 244.803 225.619 245.794Z" fill="#F1A34F"/>
<path d="M225.497 230.962H253.364V230.516H225.497V230.962Z" fill="#D86713"/>
<path d="M189.948 242.085C189.948 242.085 193.113 240.954 194.643 241.294C196.172 241.631 200.918 244.01 201.024 244.517C201.13 245.025 201.024 245.394 201.024 245.394H189.948C189.948 245.394 187.471 244.878 187.05 243.311C186.627 241.746 189.948 242.085 189.948 242.085Z" fill="#FFB27D"/>
<path d="M148.619 391.771C148.704 392.743 149.208 393.369 150.005 393.743L150.018 393.746C151.493 394.44 153.966 394.283 156.639 393.898C156.982 393.848 157.29 393.809 157.566 393.78C157.638 393.775 157.711 393.768 157.781 393.765C157.837 393.758 157.893 393.756 157.948 393.749C160.609 393.56 160.4 394.44 165.488 394.415C171.285 394.381 173.247 392.288 173.513 391.393C173.736 390.638 171.197 390.049 168.359 389.371C168.222 389.341 168.084 389.307 167.945 389.275C167.567 389.185 167.187 389.089 166.809 388.997C163.425 388.145 160.075 387.07 158.967 383.584C157.791 379.887 158.069 368.913 158.069 368.913H147.8C147.8 368.913 150.496 381.036 150.214 384.528C150.06 386.396 149.228 386.926 148.908 388.541C148.884 388.655 148.864 388.767 148.845 388.882C148.689 389.827 148.535 390.796 148.619 391.771Z" fill="#AD7041"/>
<path d="M136.671 273.169C137.538 278.389 138.773 283.78 139.848 289.388C141.573 298.405 142.875 307.985 141.543 318.299C141.372 319.627 141.279 321.092 141.259 322.669C141 340.9 148.596 373.939 148.596 373.939C148.596 373.939 150.659 374.893 154.116 374.71C155.897 374.613 158.628 373.384 158.628 373.384C158.628 373.384 159.346 352.898 159.39 325.35C159.422 305.382 163.076 279.089 163.815 263.638C164.262 254.291 163.292 241.833 163.292 241.833C163.292 241.833 148.152 228.775 142.713 235.458C137.34 242.06 133.428 253.649 136.671 273.169Z" fill="#415DA5"/>
<path d="M141.541 318.299C141.372 319.627 141.279 321.092 141.259 322.668C152.597 305.05 155.106 266.629 155.106 266.629L142.651 273.11C142.651 273.11 141.285 280.315 139.847 289.388C141.573 298.404 142.875 307.985 141.541 318.299Z" fill="#355493"/>
<path d="M115.862 391.771C115.946 392.743 116.449 393.369 117.247 393.743L117.259 393.746C118.735 394.44 121.208 394.283 123.881 393.898C124.224 393.849 124.531 393.809 124.808 393.78C124.88 393.775 124.952 393.768 125.023 393.765C125.079 393.758 125.135 393.756 125.189 393.749C127.851 393.56 127.642 394.44 132.729 394.415C138.527 394.381 140.488 392.288 140.754 391.393C140.978 390.638 138.439 390.049 135.601 389.371C135.464 389.341 135.326 389.307 135.187 389.275C134.809 389.185 134.429 389.089 134.051 388.997C130.668 388.145 127.316 387.07 126.208 383.584C125.033 379.887 126.712 369.083 126.712 369.083L117.199 368.228C117.199 368.228 117.789 380.541 117.507 384.033C117.353 385.9 116.47 386.924 116.149 388.541C116.126 388.655 116.105 388.767 116.086 388.882C115.931 389.827 115.777 390.796 115.862 391.771Z" fill="#AD7041"/>
<path d="M117.202 374.871C117.202 374.871 119.648 376.112 121.409 376.49C123.17 376.868 126.827 376.131 126.827 376.131C127.487 368.198 129.02 355.79 131.999 341.795C135.391 325.858 140.438 307.025 147.476 289.19C148.98 285.382 155.177 267.354 156.229 262.803C159.41 249.057 156.217 250.538 156.217 250.538L128.415 247.039C128.415 247.039 124.991 248.927 123.413 268.339C122.942 274.15 122.883 299.253 122.172 304.01C121.498 308.517 120.71 312.265 119.785 314.698C114.62 328.295 117.202 374.871 117.202 374.871Z" fill="#415DA5"/>
<path d="M115.862 391.771C115.946 392.743 116.449 393.369 117.247 393.743L117.259 393.746C118.818 394.344 121.254 394.217 123.875 393.88C124.218 393.836 124.527 393.805 124.808 393.78C124.88 393.775 124.952 393.768 125.023 393.765C125.079 393.758 125.135 393.756 125.189 393.749C127.851 393.56 127.642 394.44 132.729 394.415C138.527 394.381 140.488 392.288 140.754 391.392C140.978 390.637 138.439 390.049 135.601 389.371C134.853 389.768 131.28 391.502 126.841 391.037C122.936 390.637 118.95 388.96 116.149 388.541C116.126 388.655 116.105 388.767 116.086 388.882C115.931 389.827 115.777 390.796 115.862 391.771Z" fill="#B84C42"/>
<path d="M148.62 391.771C148.704 392.743 149.208 393.369 150.005 393.743L150.018 393.746C151.577 394.344 154.013 394.217 156.634 393.88C156.977 393.836 157.285 393.805 157.566 393.78C157.638 393.775 157.711 393.768 157.781 393.765C157.838 393.758 157.893 393.756 157.948 393.749C160.609 393.56 160.401 394.44 165.488 394.415C171.287 394.381 173.247 392.288 173.513 391.392C173.736 390.637 171.197 390.049 168.359 389.371C167.613 389.768 164.04 391.502 159.599 391.037C155.696 390.637 151.708 388.96 148.908 388.541C148.884 388.655 148.864 388.767 148.845 388.882C148.689 389.827 148.535 390.796 148.62 391.771Z" fill="#B84C42"/>
<path d="M159.741 157.762C160.68 149.539 158.285 136.379 142.978 138.482C127.673 140.584 122.849 156.717 125.936 163.891C129.023 171.062 121.492 172.793 119.128 180.506C117.097 187.132 116.39 195.36 113.103 199.054C102.507 210.96 123.276 229.266 135.796 225.403C158.601 218.373 161.539 217.323 160.729 198.106C160.315 188.259 153.172 184.445 157.707 181.596C168.662 174.715 157.617 176.373 159.741 157.762Z" fill="#2B478B"/>
<path d="M137.25 179.301L141.459 190.984L150.569 191.461L155.106 184.172C149.959 179.989 150.177 171.978 150.429 169.182C150.487 168.55 150.544 168.186 150.544 168.186L139.157 164.467C139.018 167.696 138.85 170.223 138.669 172.198C138.033 179.134 137.25 179.301 137.25 179.301Z" fill="#FFB27D"/>
<path d="M155.14 178.881C154.554 178.881 144.615 176.71 127.828 181.315C127.828 181.315 137.022 226.487 133.898 235.002C130.776 243.514 129.589 251.073 129.589 251.073L163.469 251.522C163.469 251.522 162.995 222.298 164.557 211.956C166.118 201.614 155.14 178.881 155.14 178.881Z" fill="#FFB27D"/>
<path d="M130.162 229.266C129.666 235.244 124.458 248.909 125.584 251.82C126.765 254.875 128.406 256.423 131.995 257.309C134.47 257.919 137.869 258.213 142.682 258.471C152.889 259.016 163.827 257.641 165.315 252.436C166.028 249.937 165.754 240.273 165.376 235.81C164.594 226.58 166.232 213.331 166.471 204.76C166.669 197.607 162.647 181.335 162.647 181.335C162.647 181.335 160.833 180.109 155.14 178.881C155.14 178.881 154.541 187.33 150.428 188.057C143.317 189.319 137.587 182.333 135.913 179.518C135.913 179.518 127.746 181.728 125.35 184.661C123.079 187.436 126.185 207.993 126.876 209.962C127.471 211.656 128.036 213.307 128.526 214.965C129.824 219.345 130.618 223.791 130.162 229.266Z" fill="#7A97F3"/>
<path d="M101.082 242.112C101.082 242.112 97.9153 240.994 96.386 241.328C94.8567 241.666 90.1105 244.019 90.0051 244.524C89.8996 245.029 90.0051 245.394 90.0051 245.394H101.082C101.082 245.394 103.558 244.881 103.98 243.328C104.402 241.777 101.082 242.112 101.082 242.112Z" fill="#FFB27D"/>
<path d="M138.669 172.972C142.824 169.985 148.047 169.836 150.429 169.956C150.487 169.324 150.544 168.96 150.544 168.96L139.157 165.241C139.018 168.47 138.85 170.997 138.669 172.972Z" fill="#E8945B"/>
<path d="M153.517 169.016C153.517 169.016 139.884 171.954 138.31 162.819C136.735 153.685 133.916 147.913 142.553 145.653C151.191 143.392 153.488 146.538 154.704 149.453C155.922 152.363 157.023 168.018 153.517 169.016Z" fill="#FFB27D"/>
<path d="M135.67 146.257C137.977 143.473 141.306 142.931 143.731 142.978C142.269 141.076 148.152 136.909 154.876 144.015C157.775 147.077 157.336 153.099 155.785 156.59C155.785 156.59 153.401 149.106 149.062 147.473C148.097 147.111 147.181 146.504 146.339 145.783C145.81 147.207 144.748 149.221 142.61 151.724C138.126 156.983 139 167.612 139 167.612C139 167.612 131.638 151.121 135.67 146.257Z" fill="#2B478B"/>
<path d="M149.27 164.523C149.27 164.523 149.634 165.605 152.201 165.114C152.201 165.114 154.357 164.702 154.158 163.485C154.158 163.485 151.959 162.875 149.27 164.523Z" fill="white"/>
<path d="M111.866 220.242C117.024 198.898 119.852 186.711 124.078 183.024C127.815 179.762 135.874 179.462 135.874 179.462C135.999 182.029 135.885 184.606 135.592 187.156L145.506 207.417C145.506 207.417 150.585 218.195 152.39 229.984C153.753 218.276 155.106 207.417 155.106 207.417C155.106 207.417 156.385 200.49 156.787 194.152C155.592 189.207 155.717 184.048 155.157 178.881L155.781 178.917C157.738 179.066 163.841 179.732 166.952 182.472C171.177 186.191 172.126 202.531 179.164 220.019C179.164 220.019 187.693 235.399 190.408 241.502C190.408 241.502 189.899 242.334 188.882 242.964C187.897 243.574 186.652 243.816 186.652 243.816C186.652 243.816 171.266 227.569 170.256 224.998C169.922 224.153 168.061 221.189 165.75 216.83C165.75 216.83 165.138 240.046 166.482 250.067C166.766 252.188 165.818 254.281 164.079 255.334C154.576 261.089 126.111 276.77 120.814 261.543C120.22 259.833 130.623 230.831 129.199 224.553C128.743 222.546 128.141 217.963 127.535 212.665C124.275 219.369 121.211 224.079 120.775 225.178C119.763 227.723 104.378 243.831 104.378 243.831C104.378 243.831 103.134 243.589 102.148 242.986C101.13 242.363 100.622 241.536 100.622 241.536C103.337 235.489 111.866 220.242 111.866 220.242Z" fill="#E9F2FF"/>
<path d="M136.41 179.401L145.506 207.417L136.411 198.193L137.099 195.326C137.099 195.326 135.009 195.526 134.161 194.938C133.312 194.35 131.338 180.029 131.338 180.029C131.338 180.029 133.187 179.694 133.801 179.621C134.456 179.54 136.41 179.401 136.41 179.401Z" fill="#B2CBFD"/>
<path d="M155.157 178.881C155.157 178.881 157.071 201.025 155.106 207.417C155.106 207.417 160.735 197.858 159.68 195.88L157.641 194.437C157.641 194.437 161.578 193.888 160.839 191.461C160.102 189.033 156.938 179.193 156.938 179.193L155.157 178.881Z" fill="#B2CBFD"/>
<path d="M258.79 398.034H41.9044V321.646L258.79 320.885V398.034Z" fill="#699FF0"/>
<path d="M41.9044 279.768H258.79V259.792H41.9044V279.768Z" fill="#699FF0"/>
<path d="M36.9413 259.792H263.34C266.652 259.792 269.338 256.913 269.338 253.361V251.825C269.338 248.274 266.652 245.394 263.34 245.394H36.9413C33.6294 245.394 30.9446 248.274 30.9446 251.825V253.361C30.9446 256.913 33.6294 259.792 36.9413 259.792Z" fill="#466AA5"/>
<path d="M131.268 206.882L137.522 206.467C137.943 206.438 138.264 206.052 138.237 205.6L138.065 202.599C138.04 202.147 137.676 201.803 137.256 201.831L131.003 202.246C130.581 202.273 130.261 202.661 130.287 203.113L130.459 206.113C130.485 206.565 130.847 206.909 131.268 206.882Z" fill="#2B478B"/>
<path d="M135.238 205.723L137.275 205.586L137.107 202.658L135.07 202.795L135.238 205.723Z" fill="#E9F2FF"/>
<path d="M131.518 203.762L134.055 203.596C134.243 203.584 134.387 203.407 134.376 203.205C134.364 203.005 134.201 202.849 134.013 202.863L131.476 203.029C131.289 203.042 131.145 203.218 131.157 203.42C131.168 203.62 131.331 203.775 131.518 203.762Z" fill="#E9F2FF"/>
<path d="M131.366 204.788L134.325 204.593C134.396 204.587 134.451 204.522 134.446 204.444C134.442 204.367 134.38 204.309 134.308 204.314L131.349 204.509C131.278 204.512 131.223 204.58 131.228 204.658C131.232 204.732 131.294 204.795 131.366 204.788Z" fill="#E9F2FF"/>
<path d="M131.392 205.24L134.35 205.044C134.423 205.042 134.478 204.973 134.473 204.897C134.469 204.822 134.406 204.763 134.335 204.766L131.376 204.961C131.304 204.968 131.25 205.032 131.253 205.11C131.259 205.188 131.321 205.246 131.392 205.24Z" fill="#E9F2FF"/>
<path d="M151.141 231.009C151.141 230.426 150.702 229.955 150.159 229.955C149.617 229.955 149.177 230.426 149.177 231.009C149.177 231.59 149.617 232.061 150.159 232.061C150.702 232.061 151.141 231.59 151.141 231.009Z" fill="#2B478B"/>
<path d="M151.141 237.619C151.141 237.038 150.702 236.562 150.159 236.562C149.617 236.562 149.177 237.038 149.177 237.619C149.177 238.198 149.617 238.672 150.159 238.672C150.702 238.672 151.141 238.198 151.141 237.619Z" fill="#2B478B"/>
<path d="M44.7845 321.637V307.177C46.549 312.094 48.4125 316.912 50.3431 321.619L44.7845 321.637Z" fill="#B7D2FB"/>
<path d="M50.3431 321.619C48.4125 316.912 46.549 312.094 44.7845 307.177V279.768H123.026C122.822 289.177 122.636 300.909 122.172 304.01C121.499 308.517 120.71 312.265 119.785 314.698C119.123 316.441 118.589 318.724 118.16 321.38L50.3431 321.619ZM136.944 321.312C138.431 315.835 140.089 310.229 141.93 304.61C142.034 306.254 142.092 307.914 142.09 309.592C142.09 312.438 141.925 315.339 141.543 318.299C141.422 319.234 141.341 320.238 141.296 321.297L136.944 321.312ZM159.443 321.234C159.755 308.029 161.358 292.732 162.562 279.768H255.91V320.885L159.443 321.234Z" fill="#B3CFFB"/>
<path d="M142.101 321.297C148.627 310.137 152.043 292.055 153.707 279.768H162.562C161.358 292.732 159.755 308.029 159.443 321.234L150.347 321.266L142.101 321.297Z" fill="#A4C2F2"/>
<path d="M141.296 321.297C141.34 320.238 141.422 319.234 141.541 318.299C141.925 315.339 142.09 312.438 142.09 309.592C142.09 307.914 142.034 306.254 141.93 304.61C143.622 299.451 145.468 294.28 147.476 289.19C148.068 287.692 149.389 283.985 150.834 279.768H153.707C152.042 292.055 148.625 310.137 142.101 321.297H141.296Z" fill="#A3C1F0"/>
<path d="M118.159 321.38C118.589 318.724 119.123 316.441 119.785 314.698C120.71 312.265 121.498 308.517 122.172 304.01C122.635 300.909 122.822 289.177 123.025 279.768H150.834C149.387 283.985 148.068 287.692 147.476 289.19C145.468 294.28 143.622 299.451 141.93 304.61C140.088 310.229 138.431 315.835 136.944 321.312L118.159 321.38Z" fill="#A4C2F2"/>
<path d="M44.7845 321.646V321.637L50.3431 321.619L118.16 321.38L136.944 321.312L141.296 321.297H142.101L150.346 321.266L44.7845 321.646Z" fill="#A8C8FA"/>
<path d="M63.2753 210.758L70.2259 245.394H43.1357L37.076 210.758H63.2753Z" fill="#699FF0"/>
<path d="M62.3437 211.861L68.6219 243.143H44.1532L38.68 211.861H62.3437Z" fill="white"/>
<path d="M41.888 214.371H60.5127C60.8557 214.371 61.1363 214.674 61.1363 215.04C61.1363 215.409 60.8557 215.709 60.5127 215.709H41.888C41.5451 215.709 41.2645 215.409 41.2645 215.04C41.2645 214.674 41.5451 214.371 41.888 214.371Z" fill="#699FF0"/>
<path d="M42.8391 217.526H61.4638C61.8068 217.526 62.0874 217.827 62.0874 218.195C62.0874 218.564 61.8068 218.864 61.4638 218.864H42.8391C42.4964 218.864 42.2155 218.564 42.2155 218.195C42.2155 217.827 42.4964 217.526 42.8391 217.526Z" fill="#699FF0"/>
<path d="M43.4328 220.552H62.0569C62.4002 220.552 62.6809 220.856 62.6809 221.22C62.6809 221.589 62.4002 221.889 62.0569 221.889H43.4328C43.0895 221.889 42.8089 221.589 42.8089 221.22C42.8089 220.856 43.0895 220.552 43.4328 220.552Z" fill="#699FF0"/>
<path d="M44.2949 226.795H62.9192C63.2626 226.795 63.5432 227.095 63.5432 227.464C63.5432 227.828 63.2626 228.132 62.9192 228.132H44.2949C43.952 228.132 43.671 227.828 43.671 227.464C43.671 227.095 43.952 226.795 44.2949 226.795Z" fill="#699FF0"/>
<path d="M45.2451 229.947H63.8694C64.2127 229.947 64.4934 230.247 64.4934 230.616C64.4934 230.983 64.2127 231.283 63.8694 231.283H45.2451C44.902 231.283 44.6212 230.983 44.6212 230.616C44.6212 230.247 44.902 229.947 45.2451 229.947Z" fill="#699FF0"/>
<path d="M45.8387 232.972H64.4632C64.8061 232.972 65.087 233.275 65.087 233.644C65.087 234.008 64.8061 234.313 64.4632 234.313H45.8387C45.4954 234.313 45.2149 234.008 45.2149 233.644C45.2149 233.275 45.4954 232.972 45.8387 232.972Z" fill="#699FF0"/>
<path d="M74.8042 230.057L78.8368 244.39L78.0975 244.632L74.0648 230.296L74.8042 230.057Z" fill="#A53D38"/>
<path d="M78.3205 243.01C79.7052 243.01 80.846 244.051 81.0209 245.394H75.6201C75.7948 244.051 76.9358 243.01 78.3205 243.01Z" fill="#B64C41"/>
<path d="M74.7818 245.01C75.8152 245.01 76.8429 244.825 76.9247 244.81L76.8946 244.624C75.8619 244.812 73.1132 245.098 72.8055 244.171C72.6685 243.76 72.7964 243.066 72.9735 242.105C73.2954 240.363 73.7819 237.724 73.2102 234.042C72.7624 231.163 73.095 230.289 73.453 230.067C73.8275 229.832 74.3316 230.262 74.3368 230.265L74.4485 230.116C74.4237 230.094 73.8416 229.603 73.3632 229.903C72.7722 230.272 72.6614 231.676 73.0341 234.076C73.6009 237.722 73.1181 240.337 72.7988 242.068C72.616 243.059 72.4843 243.775 72.6371 244.233C72.8413 244.849 73.814 245.01 74.7818 245.01Z" fill="#B64C41"/>
<path d="M328.427 377.812C328.427 377.812 324.636 381.577 325.375 384.255C326.113 386.931 329.535 388.714 329.997 391.988C330.459 395.257 332.307 397.04 333.973 397.04C335.636 397.04 341.904 397.04 341.904 397.04C341.904 397.04 343.127 394.74 340.172 394.046C337.213 393.353 336.098 389.507 336.283 385.94C336.467 382.37 336.005 377.614 336.005 377.614L329.72 376.029L328.427 377.812Z" fill="#2C3A64"/>
<path d="M375.657 396.905C375.718 396.938 375.803 396.966 375.906 396.998H397.124C396.939 396.192 396.259 394.659 393.775 394.227C390.461 393.65 384.721 391.585 383.439 387.043C383.399 386.897 383.36 386.745 383.329 386.594C382.313 381.738 374.918 388.083 374.918 388.083C374.918 388.083 374.896 388.274 374.864 388.606C374.693 390.386 374.255 396.151 375.657 396.905Z" fill="#2C3A64"/>
<path d="M392.894 266.986C392.894 266.986 391.772 282.012 390.452 300.076C388.659 324.613 386.499 354.754 386.285 360.463C385.918 370.377 384.438 386.238 384.438 386.238C384.438 386.238 380.927 390.006 373.899 388.416C373.899 388.416 367.641 365.776 365.85 341.823C365.824 341.429 365.795 341.033 365.767 340.639C364.103 316.253 361.517 264.905 361.517 264.905L392.894 266.986Z" fill="#35488B"/>
<path d="M392.894 266.986C392.894 266.986 391.772 282.012 390.452 300.076L365.85 341.823C365.824 341.429 365.795 341.033 365.767 340.64C364.103 316.253 361.517 264.905 361.517 264.905L392.894 266.986Z" fill="#2C3A64"/>
<path d="M387.767 268.769C387.767 268.769 367.525 323.192 354.215 348.767C340.904 374.341 336.744 381.479 336.744 381.479C336.744 381.479 329.12 378.209 328.427 375.975C328.427 375.975 333.516 326.603 342.429 314.568C347.465 307.765 353.383 287.357 353.66 280.22C353.938 273.083 355.462 258.957 355.462 258.957L387.767 268.769Z" fill="#35488B"/>
<path d="M381.566 168.005C374.022 170.557 360.971 163.668 360.971 163.668C360.971 163.668 366.855 158.934 367.513 149.109C367.525 148.972 367.534 148.84 367.539 148.703C367.577 147.973 367.586 147.216 367.563 146.433L369.627 148.213L377.353 154.896C377.353 154.896 376.958 158.19 376.799 163.681C378.023 164.399 379.005 165.195 379.747 165.903C380.973 167.07 381.566 168.005 381.566 168.005Z" fill="#F4AC75"/>
<path d="M352.601 162.621C352.601 162.621 372.536 159.246 385.67 168.572C385.67 168.572 394.592 231.129 386.823 237.05C379.054 242.969 352.601 237.05 352.601 237.05V162.621Z" fill="#F4AC75"/>
<path d="M379.204 304.349H343.18C343.18 304.349 347.367 238.425 348.562 222.378C349.531 209.361 351.585 178.153 352.326 166.823C352.499 164.182 352.601 162.621 352.601 162.621L361.201 161.048L375.972 181.581C375.972 181.581 378.308 236.334 378.222 244.964C378.141 253.593 379.154 287.22 379.204 292.875C379.25 298.526 379.204 304.349 379.204 304.349Z" fill="#E9F2FF"/>
<path d="M375.972 181.581L379.204 304.349H396.175C396.175 304.349 395.389 223.605 395.331 216.186C395.274 208.767 397.176 176.81 391.882 171.851C387.452 167.705 376.799 163.681 376.799 163.681L375.972 181.581Z" fill="#E9F2FF"/>
<path d="M376.908 160.846C376.908 160.846 381.747 164.42 381.564 165.705C381.383 166.987 380.718 169.018 380.718 169.018L377.759 168.374L380.257 170.257C380.257 170.257 377.424 179.115 375.972 181.581L376.908 160.846Z" fill="#E9F2FF"/>
<path d="M343.18 304.349L348.755 220.573C358.217 219.948 368.833 217.524 368.833 217.524C368.833 217.524 369.482 215.279 369.568 213.79C369.65 212.364 368.925 210.779 368.925 210.779C368.925 210.779 354.059 208.042 349.72 206.119L350.046 201.196C351.027 198.837 352.353 195.792 353.611 192.945C353.96 192.86 354.327 192.82 354.715 192.82C362.275 192.82 376.429 208.299 374.861 222.4C371.096 256.284 355.064 294.064 343.18 304.349Z" fill="#DEEAFF"/>
<path d="M367.513 149.109C367.481 148.857 367.406 148.734 367.406 148.734L367.539 148.703L369.627 148.214L377.353 154.896C377.353 154.896 377.02 158.008 376.781 163.696C376.76 163.664 368.818 158.952 367.513 149.109Z" fill="#C97C47"/>
<path d="M380.503 156.927C380.503 156.927 367.048 156.524 367.413 147.541C367.776 138.562 366.287 132.462 374.89 132.338C383.494 132.218 385.024 135.723 385.581 138.751C386.139 141.779 384.01 156.8 380.503 156.927Z" fill="#F4AC75"/>
<path d="M367.406 148.733C367.406 148.733 369.155 149.229 370.545 147.244C371.93 145.26 374.243 137.623 377.296 137.129C380.349 136.629 384.372 139.061 385.67 137.674C387.562 135.648 390.001 132.335 390.001 132.335C390.001 132.335 374.861 120.761 368.818 126.118C362.776 131.474 360.659 139.308 367.406 148.733Z" fill="#2C3A64"/>
<path d="M385.576 180.807C385.289 175.245 382.46 166.182 382.434 166.096L383.242 166.479C383.344 166.842 385.592 175.113 385.884 180.795L385.576 180.807Z" fill="#2C3A64"/>
<path d="M365.983 197.416C365.697 197.1 358.773 189.956 360.248 184.953C360.827 183.002 361.887 182.233 363.009 181.667C364.057 181.256 366.506 180.829 367.771 181.683C370.076 183.24 371.241 187.541 371.581 194.698L371.301 194.713C370.894 186.225 368.852 183.154 367.331 182.46C365.414 181.589 362.054 181.949 360.994 185.237C360.266 187.5 361.696 190.669 363.02 192.842C364.496 195.257 366.098 197.397 366.116 197.416H365.983Z" fill="#2C3A64"/>
<path d="M366.702 198.187C366.436 198.471 366.003 198.471 365.738 198.187L365.261 197.679C364.999 197.394 364.999 196.93 365.261 196.644C365.526 196.359 365.963 196.359 366.228 196.644L366.702 197.152C366.967 197.438 366.967 197.902 366.702 198.187Z" fill="#B64C41"/>
<path d="M371.466 196.063C371.09 196.063 370.785 195.734 370.785 195.331V194.613C370.785 194.21 371.09 193.883 371.466 193.883C371.841 193.883 372.15 194.21 372.15 194.613V195.331C372.15 195.734 371.841 196.063 371.466 196.063Z" fill="#B64C41"/>
<path d="M383.82 180.807C383.82 179.711 384.648 178.822 385.67 178.822C386.689 178.822 387.518 179.711 387.518 180.807C387.518 181.903 386.689 182.792 385.67 182.792C384.648 182.792 383.82 181.903 383.82 180.807Z" fill="#2C3A64"/>
<path d="M384.799 180.807C384.799 180.248 385.22 179.797 385.74 179.797C386.26 179.797 386.678 180.248 386.678 180.807C386.678 181.364 386.26 181.816 385.74 181.816C385.22 181.816 384.799 181.364 384.799 180.807Z" fill="#D6716B"/>
<path d="M377.287 304.35C377.275 304.227 376.108 291.859 376.446 281.111C376.587 276.569 376.466 271.231 376.352 266.07C376.186 258.703 375.817 251.612 376.371 246.986C377.321 239.072 377.13 203.1 376.741 199.203C376.363 195.399 376.726 191.231 377.075 189.975C377.433 188.694 375.901 181.676 375.883 181.605L376.062 181.556C376.135 181.85 377.789 188.758 377.417 190.093C377.068 191.338 376.55 195.406 376.926 199.181C377.316 203.083 378.064 239.047 377.111 246.971C376.559 251.578 376.371 258.706 376.536 266.063C376.651 271.227 376.772 276.572 376.631 281.118C376.293 291.853 377.994 304.227 378.005 304.35H377.287Z" fill="#B2CBFD"/>
<path d="M407.117 205.596C407.117 205.596 411.675 214.012 406.894 216.227C402.116 218.44 401.6 216.105 401.6 216.105L407.117 205.596Z" fill="#E9F2FF"/>
<path d="M368.925 210.78C368.925 210.78 369.65 212.365 369.568 213.79C369.481 215.279 368.832 217.524 368.832 217.524C368.832 217.524 340.694 223.948 335.225 218.579C329.353 212.814 340.247 169.495 344.91 165.256C346.918 163.429 351.154 162.315 355.064 161.649C357.22 161.281 359.276 161.049 360.806 160.907C362.38 160.76 363.401 160.711 363.401 160.711L362.767 163.229L360.301 173.01L357.422 184.416C357.422 184.416 348.822 203.403 348.544 205.19C348.267 206.975 368.925 210.78 368.925 210.78Z" fill="#E9F2FF"/>
<path d="M372.843 178.546C372.843 178.546 365.674 175.199 360.517 172.149L362.767 163.227L372.843 178.546Z" fill="#DEEAFF"/>
<path d="M360.517 172.149C360.515 172.146 360.512 172.146 360.508 172.142C357.143 170.149 355.419 166.418 355.064 161.649C357.22 161.281 359.276 161.048 360.806 160.905C361.051 160.993 361.201 161.049 361.201 161.049L362.767 163.229L360.517 172.149Z" fill="#DEEAFF"/>
<path d="M375.972 181.581L364.796 158.722C364.796 158.722 360.627 159.63 359.227 161.036C359.227 161.036 359.938 167.91 360.494 169.433C360.494 169.433 362.651 169.167 362.961 169.365C362.961 169.365 361.912 171.084 361.603 171.282C361.603 171.282 371.318 176.141 375.972 181.581Z" fill="#E9F2FF"/>
<path d="M363.041 182.46C362.275 180.648 355.545 165.231 357.261 161.308L357.918 161.222C356.62 164.194 361.285 177.596 363.312 182.397L363.041 182.46Z" fill="#2C3A64"/>
<path d="M378.771 196.769C378.276 196.769 377.873 196.337 377.873 195.805C377.873 195.272 378.276 194.842 378.771 194.842C379.268 194.842 379.669 195.272 379.669 195.805C379.669 196.337 379.268 196.769 378.771 196.769Z" fill="#CDDEFE"/>
<path d="M378.771 250.677C378.276 250.677 377.873 250.246 377.873 249.713C377.873 249.181 378.276 248.751 378.771 248.751C379.268 248.751 379.669 249.181 379.669 249.713C379.669 250.246 379.268 250.677 378.771 250.677Z" fill="#CDDEFE"/>
<path d="M379.223 226.038C378.73 226.038 378.326 225.608 378.326 225.076C378.326 224.546 378.73 224.116 379.223 224.116C379.72 224.116 380.121 224.546 380.121 225.076C380.121 225.608 379.72 226.038 379.223 226.038Z" fill="#CDDEFE"/>
<path d="M378.392 273.495C378.349 273.386 378.326 273.266 378.326 273.139C378.326 273.029 378.343 272.927 378.375 272.831L378.392 273.495Z" fill="#CDDEFE"/>
<path d="M379.224 274.098C378.846 274.098 378.522 273.85 378.392 273.494L378.375 272.831C378.493 272.451 378.828 272.175 379.224 272.175C379.721 272.175 380.122 272.605 380.122 273.139C380.122 273.667 379.721 274.098 379.224 274.098Z" fill="#CDDEFE"/>
<path d="M368.399 166.096C368.399 166.096 371.512 167.737 376.539 166.721L375.972 181.581L368.399 166.096Z" fill="#7A97F3"/>
<path d="M388.05 183.676L417.153 186.472L399.394 220.307L372 218.62L388.05 183.676Z" fill="#35488B"/>
<path d="M390.732 183.522C390.732 183.522 390.744 178.739 393.209 179.069C395.671 179.401 396.417 184.203 396.417 184.203L390.732 183.522Z" fill="#B2CBFD"/>
<path d="M416.962 186.045L387.86 183.249L371.809 218.193L372.009 218.625L388.056 183.683L417.162 186.479L416.962 186.045Z" fill="#7A97F3"/>
<path d="M393.209 179.069C393.209 179.069 397.321 181.234 395.869 188.172C394.413 195.111 392.603 198.917 393.66 203.02L413.264 204.952C413.264 204.952 411.132 199.496 413.501 193.973C415.868 188.452 414.185 182.141 412.013 181.589L393.209 179.069Z" fill="#E9F2FF"/>
<path d="M403 214.01C403 214.01 400.02 210.167 400.634 207.388C401.253 204.612 403.473 203.97 404.827 204.952C406.185 205.933 408.159 208.182 407.79 209.903C407.417 211.622 404.501 214.808 403 214.01Z" fill="#F4AC75"/>
<path d="M367.438 211.721C367.438 211.721 372.488 209.343 374.8 210.037C377.11 210.73 380.231 211.226 380.474 212.12C380.718 213.012 378.81 216.315 375.972 216.483C373.134 216.65 368.14 218.071 366.939 216.483C365.735 214.894 367.438 211.721 367.438 211.721Z" fill="#F4AC75"/>
<path d="M0.597991 398.325H799.153C799.48 398.325 799.752 398.037 799.752 397.685C799.752 397.331 799.48 397.04 799.153 397.04H0.597991C0.269102 397.04 0 397.331 0 397.685C0 398.037 0.269102 398.325 0.597991 398.325Z" fill="#283250"/>
<path d="M289.265 160.38C290.241 160.38 291.028 159.53 291.028 158.487V136.9C291.028 135.853 290.241 135.004 289.265 135.004C288.289 135.004 287.501 135.853 287.501 136.9V158.487C287.501 159.53 288.289 160.38 289.265 160.38Z" fill="#466AA5"/>
<path d="M289.265 346.259C290.241 346.259 291.028 345.412 291.028 344.367V322.78C291.028 321.732 290.241 320.885 289.265 320.885C288.289 320.885 287.501 321.732 287.501 322.78V344.367C287.501 345.412 288.289 346.259 289.265 346.259Z" fill="#466AA5"/>
<path d="M425.093 218.322C425.093 221.521 427.51 224.116 430.492 224.116C433.474 224.116 435.893 221.521 435.893 218.322C435.893 215.128 433.474 212.532 430.492 212.532C427.51 212.532 425.093 215.128 425.093 218.322Z" fill="#699FF0"/>
<path d="M425.066 272.085C425.066 275.283 427.483 277.879 430.465 277.879C433.448 277.879 435.865 275.283 435.865 272.085C435.865 268.886 433.448 266.295 430.465 266.295C427.483 266.295 425.066 268.886 425.066 272.085Z" fill="#699FF0"/>
</g>
</svg>
